<svg xmlns="http://www.w3.org/2000/svg" viewBox="0 0 1447.12 267.74"><defs><style>.cls-1{opacity:0.18;}.cls-2{fill:#0069aa;}.cls-2,.cls-4{fill-rule:evenodd;}.cls-3,.cls-4{fill:#57bce3;}</style></defs><title>houses</title><g id="Layer_2" data-name="Layer 2"><g id="Notes"><g class="cls-1"><path class="cls-2" d="M1233,219.21a4,4,0,0,0-2.11-3.28,11.44,11.44,0,0,0-2.12-.79c-.44-.09-3,0-3-.56,0-.06.29-.74-1.25-4-.38-.81-3.26-2.53-3.65-3.32-.78-1.54-1.18-3.66-1.86-5-1-2,2.34-26.79,2.41-26.84l6.13-71.07-.94-1.76a8.54,8.54,0,0,1-2.23,0c-5.19-.32-10.65-.81-15.79-.77a73.71,73.71,0,0,1-8.86-.68l-6.52-.63a11.68,11.68,0,0,1-2.11-.23,7.72,7.72,0,0,1,0-1.71c-.2-3.66.61-6.38.53-10a7.13,7.13,0,0,0-.13-1.65c-.2-.29-1.9-.5-2.3-.54-2.59-.26-5.87.25-7.8-.24a5.64,5.64,0,0,1-3.85-3.14,4,4,0,0,1-.47-.81,2,2,0,0,0,0-.49,5.66,5.66,0,0,1-.43-1.78,12.47,12.47,0,0,1,.62-1.58c.84-3,0-6.94.06-10.51a5.88,5.88,0,0,1,.9-3.53c.05-.06.42-.3.69-.53s.67-.32.76-.53a4.64,4.64,0,0,0-.14-1.71c-.14-.27-1.18-.62-1.65-1-3.2-2.24-6.05-4.43-9.29-6.8-.4-.3-1.27-1.13-1.53-1.13a8.44,8.44,0,0,0-1.63.94c-1.56,1.06-2.77,2.12-4.31,3.33s-3.29,2.67-5,4c-.14.1-.63.27-.52.78.21,1,1.7.59,2.71,1,1.6.7,1.08,3,1,5.28-.13,3.54.06,6.91,1.33,9.14.22.39.77.91.83,1.24a6,6,0,0,1-.34,1.58c-.25,1.07-1.08,3.59-2.13,3.62-1.21,0-2.49-.18-3.75-.14-3.09.08-5.1-1.38-8.35-1.53-.6,0-1.68.2-1.75.14a9.58,9.58,0,0,1-.32-2.27c-.2-2.32-.28-4.92-1.19-6.39-1.29-2.1-4.08-2.27-7.24-2.66l-.57-.06c-.24-4.79.76-9.06.37-14.14a6.14,6.14,0,0,0-.07-1.11,10,10,0,0,0-1.06-.33c-1.59-.54-3.56-1.54-5.58-1-.54.15-1.64.79-1.63,1.19A83.29,83.29,0,0,1,1127,70c-3,0-6.05.06-9,.24l-1,.06c0-.44,0-.88,0-1.14.12-4.65.22-8.82.38-13.69a11.59,11.59,0,0,0,.1-2.2c-.14-.23-1.57-.3-1.82-.34-1.77-.3-3.92-.85-5.64-.43s-2.11,1.82-1.83,3.81a34.86,34.86,0,0,1-.06,5.5,26.87,26.87,0,0,1-1.6,9.22,111.2,111.2,0,0,1-15.86,0,21.94,21.94,0,0,0-4.52-.28c-.63.07-1.19.2-2.05.32a9.71,9.71,0,0,0-2.11.26,12.85,12.85,0,0,0,0,2.51c.06,5.6.6,11-.41,15.76a3.55,3.55,0,0,1-.23,1,8.76,8.76,0,0,1-1.75.09c-2.73.23-5.37,1-8.38.61a21.8,21.8,0,0,1-2.95-.86,16.6,16.6,0,0,0-3.34-.13c-12.3-.27-23.64-1.69-35.8-2.31-3.38-.17-6.74-.24-10-.16a25.19,25.19,0,0,1-3.23,0c-.51-.06-1.26-.45-2.06-.66a6.15,6.15,0,0,1-1.94-.77,1.27,1.27,0,0,1-.65-.87c-.71-4.45-1.57-13.34-2.31-17.89.85.35-1.08-1.36-5.29-.19s-49.67-.13-70.3.65a14.44,14.44,0,0,0-3.93.53c-1.54.57-1.26,3.08-1.14,4.32.29,2.94,1.14,7.1,1.49,8.89.23,1.15,5.7,1.82,6,2.74.24.74,1.87.51,2,.9,2.66,11.76.65,19.62,1.75,31.62,1.06,11.57.24,20.8.83,33.14,0,.37-4.21,1.46-4.16,1.83,0,.06-9.65,11.73-14.18,23.57-.21.55-2.15,6.86-1.31,7a25.15,25.15,0,0,0,6.21,0,26.61,26.61,0,0,0,3.11-.12c.17,0,0,.13.18-.05s-.07-.11.17-.18a11,11,0,0,1,2.52.06,12.89,12.89,0,0,1,2.52.06c.1.07.06.23.12.61.5,3.08,1.44,6.24,1.45,9.33,0,11.78.13,20.26.76,34.9,0,.48,0,3.68-.07,3.75-.19.23-2.31,0-3,0-6.87-.23-7.14-.65-13.93-.43a6.23,6.23,0,0,0,0,1.41c16.41,2.8,62.11,5.47,80,6.64l13.44.91c4.46.29,8.92.81,13.38.9,8.91.2,17.78-.4,26.74-.7,8.78-.29,17.48-.85,26.08-1.38,17.38-1.07,34-2.5,49.73-5.33,2.07-.37,4.15-.41,6.2-.65,6-.71,11.65-2.44,17.32-3.35.38-.06,2,1.41,2.43,1.77,4.55,3.77,8.72,7.31,13.38,11.12.61.5,1.68,1.7,2.19,1.76a10.74,10.74,0,0,0,2.46-.62c5-1.08,10.48-1.73,12.25-6.09a21.43,21.43,0,0,0,.56-2.56,19,19,0,0,0,.74-2.06c.5-3.58-3.53-4.61-5.81-5.82-.8-.42-2.12-1.1-1.38-2.29a5.86,5.86,0,0,1,3.67-2.12c4-.71,8-1.43,12-2.18a13.2,13.2,0,0,1,2.4-.44,10.68,10.68,0,0,1,2.83,1.41c6.29,3.36,12.81,5.78,18.24,10.12.38.31,1.16,1,1.3.89,2.11-1.11,4.32-2.18,6.65-3.28a26.73,26.73,0,0,0,4.72-2.71c.4-.3,1.4-.93,1.34-1.43C1233.31,222.45,1233.36,220.75,1233,219.21ZM1105,140.72a10.94,10.94,0,0,1,0,2.39c.06,5.67-.15,11.63.54,16.58a37.42,37.42,0,0,1-11.92-1.61,21.24,21.24,0,0,0,1.38-8c0-2.21-.3-4.57-.49-6.73a12.16,12.16,0,0,1-.2-2.27,3.55,3.55,0,0,1,1-1.39,10.4,10.4,0,0,1,3.93-.4,17.23,17.23,0,0,1,3.11.56A9.82,9.82,0,0,1,1105,140.72Zm-4.1,42.7c-.21,2.16-.58,3.85-.76,5.48-.54,5.05-.46,10-5.83,9.29a8,8,0,0,1-1.52-.34,7.54,7.54,0,0,1,0-2.26,10,10,0,0,1,.69-1.33c2-4.59-.32-13.74,6.66-12.87.14,0,.84,0,.94.14A9.83,9.83,0,0,1,1100.86,183.43Zm-5.55-87.05a11.33,11.33,0,0,1,4.69-1.18,17,17,0,0,1,2.58-.37,4.37,4.37,0,0,1,3.08,2.27,23.57,23.57,0,0,1,.46,4.53,52.92,52.92,0,0,1-.1,11.8,8.61,8.61,0,0,1-.38,2.07c-.19.12-1.07-.11-1.41-.15-3.43-.46-6.48-.86-9.64-1.37.46-4.53.64-10.1-.28-14.31a9.43,9.43,0,0,1-.43-1.78C1093.91,97.36,1094.82,96.67,1095.3,96.37Zm-82-5.29a6.31,6.31,0,0,1,1.16-.08h.36c1.3,0,2.8,0,4,0l1.09.06c1.42.1,2.84.17,4.26.25s2.65.14,4,.24c2,.16,4.06.31,6.06.4,1,0,2,.08,3,.09s2,0,3,0c.59,0,1.2-.11,1.8-.18a11.82,11.82,0,0,1,1.77-.11,19.67,19.67,0,0,1,2.12.41c9.73,1.5,20.31,1.8,30.83,2.43q2.25.14,4.5.3,0,4.13.09,8.26a76.31,76.31,0,0,1-10.48-.37c-1.76-.15-3.52-.31-5.27-.43s-3.49-.21-5.21-.21c-.27,0-.54,0-.81,0s-.77,0-1.15,0a8.8,8.8,0,0,1-1,0c-.39,0-.78-.09-1.19-.16-1.23-.2-2.54-.51-3.86-.69-2.82-.39-5.75-.66-8.72-.87s-6-.37-9-.54a154.38,154.38,0,0,1-17.2-1.65l-.24,0-.68-.1a5.69,5.69,0,0,1-1.84-.39,1.89,1.89,0,0,1-.73-.74,3.31,3.31,0,0,1-.25-.53,10.24,10.24,0,0,1-.38-3.59c0-.32,0-1.15,0-1.58A.73.73,0,0,1,1013.26,91.09Zm-10.64,74c.7-1.89,1.42-3.75,2.15-5.53.05-.13.14-.38.25-.68l.17-.47a5,5,0,0,1,1-1.88,4.28,4.28,0,0,1,1.38-.09l1.07.05,2.35.17a10.26,10.26,0,0,0,2.42,0c-.1,2.2-1.36,4.64-2.33,6.55-.32.64-.62,1.26-.9,1.89a18.63,18.63,0,0,0-1,2.71,7.24,7.24,0,0,0-.17,1,3.8,3.8,0,0,1-.17.85,1.52,1.52,0,0,1-.18.28,4.45,4.45,0,0,1-.26.38,4.55,4.55,0,0,0-.37.49c-1.56,2.53-1.19,7.41-2.68,10.19a4.43,4.43,0,0,1-.76,1.05,2.46,2.46,0,0,1-1.39.34c-1.53.09-3.9-.14-5.4-.21a8.61,8.61,0,0,0-1.14,0c1.61-4.54,3.23-9.48,4.95-14.29Q1002.09,166.53,1002.62,165.11Zm.36-25.67c0,.16-.06.39-.12.64a8.83,8.83,0,0,1-.51,1.7.89.89,0,0,1-.26.36,1.66,1.66,0,0,1-.64,0l-.43,0-.36,0c-1.36,0-2.5,0-3.65-.05-.57,0-1.15,0-1.76-.08s-1.25-.1-1.94-.19l-.31,0-.41,0a8.61,8.61,0,0,1-2.45-.49c-.2-.14-.25-.77-.36-1.23-.55-2.36.07-5.33.17-8a11.48,11.48,0,0,0-.15-2.53,6.38,6.38,0,0,1,2.21-.37,13.69,13.69,0,0,1,1.52.06c.91.08,1.84.23,2.78.37l1.4.18a13.06,13.06,0,0,0,2.68.06c.54-.06,1.34-.34,1.38,0,.09.73.24,1.47.41,2.24A20.66,20.66,0,0,1,1003,139.44Zm-.29-69.27a10.94,10.94,0,0,0,3,0c.15,0,.8-.45.82-.41a9.06,9.06,0,0,1,.74,2.66c.06.44.12.88.16,1.35.13,1.56.12,3.26.08,4.81l-5-.11c-.14-2.08-.74-4-.86-6.11,0-.35,0-.7,0-1.06a10.57,10.57,0,0,1,.09-1.1C1002,70.15,1002.32,70.16,1002.68,70.18Zm-3.26,34.48a15.16,15.16,0,0,1,1.72-.18,5,5,0,0,1,1,.17c.09,0,.28.09.45.16s.33.17.36.28a.67.67,0,0,1-.07.37c-.05.13-.12.26-.14.33a11.67,11.67,0,0,0-.27,1.57c-.38,3.55.6,7.16-.82,10.5-.05.12-.08.24-.13.36l-.19.38a8,8,0,0,1-.45.83.57.57,0,0,1-.18.2h0a6.16,6.16,0,0,1-1.49-.19h0c-2.2-.36-4.05-.52-6-.77-.66-.08-1.34-.18-2.05-.29-.4-.06-1.09-.09-1.73-.15a6.1,6.1,0,0,1-1.16-.18.74.74,0,0,1-.26-.12.54.54,0,0,1-.1-.22,8.54,8.54,0,0,1-.17-.84l-.06-.36c0-.11,0-.22,0-.33a29.39,29.39,0,0,1-.19-7c.07-.87.16-1.75.27-2.68h0c.06-.49.06-1.09.14-1.52a1.34,1.34,0,0,1,.11-.36.83.83,0,0,1,.29-.27,4,4,0,0,1,.72-.34,4.93,4.93,0,0,1,.84-.26c2-.36,4,.38,6.32.83l.9.16A8.82,8.82,0,0,0,999.42,104.65Zm-13.74,52.53L984,161.65l-1.45,3.86-1.65,4.41-1.22,3.27-1,2.7-1,2.62c-.1.27-.23.74-.38,1.24a5.24,5.24,0,0,1-.74,1.83,6.4,6.4,0,0,1-1.64.06l-.84,0c-1.15-.05-2.32-.14-2.67-.14l-1.55,0a7,7,0,0,1-1.19-.11c.67-1.59,1.36-3.35,2.06-5.19.35-.92.71-1.87,1.06-2.83,1.78-4.79,3.61-9.88,5.3-14,.05-.13.13-.36.22-.64l.15-.44a6.61,6.61,0,0,1,.83-1.84c.34-.27,2,.43,2.71.29a9.47,9.47,0,0,1,2.64.18l1.26.23Zm1.43-84.75a1.54,1.54,0,0,1,.27-.6.53.53,0,0,1,.21-.2,2.26,2.26,0,0,1,.89.14,2.4,2.4,0,0,0,.34.07,7.88,7.88,0,0,0,1.75-.05c1.68-.23,3.19-.88,4.87-1a12.6,12.6,0,0,1,2.15.09h.06a.75.75,0,0,1,.38.14,1.58,1.58,0,0,1,.1.57,8.44,8.44,0,0,0,.09.9c.08.36.17.71.27,1.05a10.58,10.58,0,0,1,.53,3.12c0,.13,0,.28,0,.44a2.45,2.45,0,0,1-.35,1.2.94.94,0,0,1-.19.07,9.36,9.36,0,0,1-2.22.24c-.7,0-1.39.06-2.08.06-2.06,0-4.1-.16-6.14-.18a3.07,3.07,0,0,0,.08-1.19,6.1,6.1,0,0,0-.4-1.45,8.71,8.71,0,0,1-.67-2.15,4.24,4.24,0,0,1,0-.61s0,0,0-.06A4,4,0,0,1,987.11,72.43Zm-4.42,55.94c.19,2.68.79,5.18.75,8.11a12.59,12.59,0,0,1-.26,2.86,1.47,1.47,0,0,1-.12.29,2.58,2.58,0,0,1-1.32.64l-.5.11c-3.08.55-6.25-1.56-9.25-1.79h-.16a5.91,5.91,0,0,0-1.11,0c0-.56-.07-1.1-.12-1.64-.13-1.3-.31-2.57-.36-3.95a16.78,16.78,0,0,1,0-2,8.12,8.12,0,0,1,.63-2.93,2,2,0,0,1,.71-.64,5.92,5.92,0,0,1,.95-.46,4.29,4.29,0,0,1,.77-.18,5.48,5.48,0,0,1,1.69-.07l.13,0c2,.29,4.17,1.4,6.26,1.62A6,6,0,0,0,982.69,128.37Zm-20.87-.91c.19,2.68.79,5.18.75,8.11a12.59,12.59,0,0,1-.26,2.86,1.47,1.47,0,0,1-.12.29,2.58,2.58,0,0,1-1.32.64l-.5.11c-3.08.55-6.25-1.56-9.25-1.79H951a5.91,5.91,0,0,0-1.11,0c0-.56-.07-1.1-.12-1.64-.13-1.3-.31-2.57-.36-3.95a16.78,16.78,0,0,1,0-2,8.12,8.12,0,0,1,.63-2.93,2,2,0,0,1,.71-.64,5.92,5.92,0,0,1,.95-.46,4.29,4.29,0,0,1,.77-.18,5.48,5.48,0,0,1,1.69-.07l.13,0c2,.29,4.17,1.4,6.26,1.62A6,6,0,0,0,961.82,127.46Zm14.09-55.1c.77-.09,1.55-.22,2.33-.34a17.52,17.52,0,0,1,3.54-.27c1.79.09,3,.91,3.35,2.57a3.28,3.28,0,0,1,.09.32s0,.05,0,.08a8.85,8.85,0,0,1,0,1.43,4.8,4.8,0,0,1-.32,1.48,1.6,1.6,0,0,1-.34.48,3.44,3.44,0,0,1-1,.63,7.92,7.92,0,0,1-.78.32,8.26,8.26,0,0,1-2.41.39,33,33,0,0,1-4-.23c-.89-.08-1.78-.15-2.64-.15a11.76,11.76,0,0,0-1.26.07q0-3.42-.07-6.85A10.41,10.41,0,0,0,975.91,72.37ZM968,106c0-.31.1-.67.16-1a4.48,4.48,0,0,1,.46-1.55.46.46,0,0,1,.2-.09c.28-.08.77-.12,1.11-.19a25.7,25.7,0,0,1,10.82.33s0,0,0,0a0,0,0,0,0,0,0h0a.7.7,0,0,1,0,.11c-.89,3.57.81,6.16.45,9.59,0,0,0,.09,0,.13a9.13,9.13,0,0,1-.33,1.56c0,.08-.05.17-.09.27l-.12.3c-.09.21-.19.42-.3.62a2.7,2.7,0,0,1-.46.67.28.28,0,0,1-.12.07c-.19,0-.88-.38-1.11-.43-2-.47-4-.05-6,0a11,11,0,0,1-2.07-.13,8.37,8.37,0,0,1-1-.25,7,7,0,0,1-.71-.26,1.37,1.37,0,0,1-.64-.43,4.47,4.47,0,0,1,0-1.05c0-.14,0-.27,0-.38,0-1.25-.12-2.3-.2-3.33a23.54,23.54,0,0,1-.07-3.89C968,106.57,968,106.31,968,106Zm-5.73,52.67.13-.37c.17-.5.39-1.13.6-1.61.06-.13.11-.25.17-.35l.07-.13a.72.72,0,0,1,.15-.19.68.68,0,0,1,.46,0l.35.06a11.74,11.74,0,0,0,1.59.3,1.4,1.4,0,0,0,.31,0,9.23,9.23,0,0,1,2.58.17l1.32.24.74.14c-2.46,6.5-5.42,14.45-8,21.33-.1.26-.23.74-.38,1.24a5.17,5.17,0,0,1-.74,1.82,6.26,6.26,0,0,1-1.64.06l-.84,0c-1.15-.05-2.32-.14-2.67-.14a17.77,17.77,0,0,1-2.74-.13c2.66-6.36,5.73-15.4,8.42-22.07Zm-1.06-52.53a16.84,16.84,0,0,0,.22,1.67c.11.67.24,1.34.35,2,0,.17,0,.34.07.51a9.72,9.72,0,0,1-.28,4.19c0,.13-.1.3-.17.46l-.09.21a4.15,4.15,0,0,1-.71,1.19.29.29,0,0,1-.13.07.5.5,0,0,1-.22,0c-.29-.1-.72-.35-.89-.38-2.7-.63-5.3.33-8.1-.14a8.77,8.77,0,0,1-1.3-.34,2.2,2.2,0,0,1-1.09-.6,4.72,4.72,0,0,1,0-1.05c0-.14,0-.27,0-.38,0-.68,0-1.3-.09-1.89a33,33,0,0,1-.18-5.33c0-.24.08-.72.16-1.25a6.09,6.09,0,0,1,.54-2,2.59,2.59,0,0,1,.93-.22l.38-.07a24.2,24.2,0,0,1,8-.2l.26,0c.87.12,1.74.27,2.59.48h0a0,0,0,0,1,0,0,.06.06,0,0,0,0,0v0s0,.07,0,.09A9,9,0,0,0,961.24,106.14Zm-4.5-34.26a5.51,5.51,0,0,1,1.75-.33,9.46,9.46,0,0,1,1.52,0l.6,0c1.88.15,3.86.56,5.58.86.39.07,1,.06,1.5.13a1.49,1.49,0,0,1,.38.1.59.59,0,0,1,.19.15,2.1,2.1,0,0,1,.28.45c.06.11.11.23.16.35s.15.39.21.6a6.15,6.15,0,0,1,.24,1.16c0,.12,0,.26,0,.4a11.79,11.79,0,0,1,0,1.31c0,.05,0,.13,0,.23,0,.34-.09.88-.17,1.37a2.49,2.49,0,0,1-.25,1,1,1,0,0,1-.47.09c-.22,0-.48,0-.75,0l-.8-.07h0l-.63,0-1.43,0-3.86-.09h-.19l-.73,0H959a2.51,2.51,0,0,1-.85-.09c-.15-.11-.13-.61-.19-.92-.16-.92-.3-1.66-.44-2.38s-.27-1.43-.43-2.29c-.05-.28-.18-.7-.27-1.08A1.5,1.5,0,0,1,956.74,71.88Zm-9.91,7.65c-.25,0-.49,0-.69,0h0a.67.67,0,0,1-.32-.05,5.77,5.77,0,0,1-.23-1.54s0-.09,0-.11l-.13-.81c-.09-.57-.18-1.19-.26-1.74l-.11-.77c-.06-.39-.18-.86-.22-1.29a2.34,2.34,0,0,1,0-.37,1.52,1.52,0,0,1,.68-1.19,2.5,2.5,0,0,1,.91-.38,9.06,9.06,0,0,1,2.61,0c.49,0,1.13.13,1.76.16.25,0,.6-.05.82-.06h0a.48.48,0,0,1,.17,0,.41.41,0,0,1,.14.14c.16.23.39.67.58,1a10.52,10.52,0,0,1,1.65,3.77,5.85,5.85,0,0,1,.06,1.53c0,.27-.22,1.38-.51,1.52a8.13,8.13,0,0,1-2,0l-3.93.1C947.58,79.45,947.21,79.49,946.83,79.53Zm-12.47,94.65c-.48.67-1,1.32-1.44,2l-.11.17c-.5.79-1.31,2.44-1.89,2.68a4.39,4.39,0,0,1-1.31.19c-.46,0-.94,0-1.31.08l-1.32.18-1.18.17c2.8-4.2,4.94-9.13,7.27-14,.93-1.94,1.9-3.87,3-5.74q.79-1.4,1.65-2.74c.14-.23.37-.68.63-1.18.44-.82,1-1.75,1.48-1.91a1,1,0,0,1,.27,0h.1l.49.06.12,0,.53.08.31.05.23,0c1.31.22,2.87.51,3.57.54h0a.72.72,0,0,1,.07-.14c0-.06.07-.1.11-.08h0l0,0,.13.1a0,0,0,0,1,0,0s0,0,0,0a.22.22,0,0,1-.11,0h-.24c-.2.55-.38,2.07-.58,3.16l0,.11c0,.17-.07.33-.1.47l0,.14a1.9,1.9,0,0,1-.13.38h0c-.25.47-.54.89-.81,1.34C940.9,165.38,937.6,169.66,934.36,174.18Zm10.16,6.72-1-.05a18.64,18.64,0,0,1-2.74-.13c.33-.8.67-1.63,1-2.5,2.41-6.08,5.05-13.73,7.41-19.57a14.43,14.43,0,0,1,1.2-2.91.35.35,0,0,1,.19-.06h.28c.32,0,.75.15,1.16.24a5,5,0,0,0,.78.12,1.33,1.33,0,0,0,.31,0,9.24,9.24,0,0,1,2.58.17c1,.16,1.86.35,2.07.37-.92,2.44-1.92,5.08-2.93,7.79l-1,2.73c-1.37,3.66-2.74,7.37-4,10.81-.12.34-.31,1-.51,1.64a3.66,3.66,0,0,1-.62,1.42,16.43,16.43,0,0,1-3.29,0ZM984.23,207a.84.84,0,0,1-.27.2h0a6.78,6.78,0,0,1-1.55.48,26.59,26.59,0,0,1-3,.46c-5.47.48-12.42-.39-19.12-1.15l-2.22-.24-2.19-.22c-1.48-.14-2.93-.26-4.33-.34s-2.48-.11-3.64-.1h-.43c-.53,0-1.05,0-1.55.05-1.16-4.11-.55-9.18-.88-13.77a15.88,15.88,0,0,1,0-2.48,4.31,4.31,0,0,1,.75-2.26c.22-.29,1.41-.41,2.9-.48l1.56,0a49.33,49.33,0,0,0,5.16-.19c8.61-1.85,18.16,1.51,27.58,1.06a14.46,14.46,0,0,1,.69,3.35c.33,3.41-.19,7,.52,10.56a15.83,15.83,0,0,1,.44,4A2.11,2.11,0,0,1,984.23,207Zm2.36-25.46c-.42-.15-1.18-.32-1.29-.58a.57.57,0,0,1,0-.26c0-.23.14-.56.23-.87s.11-.37.15-.52a171.85,171.85,0,0,1,6-17.28c.5-1.29,1-2.57,1.49-3.89l.14-.39c.1-.28.21-.61.3-.84a1.49,1.49,0,0,1,.13-.29,2.17,2.17,0,0,1,.85,0h.33c1.26-.08,2.49-.22,3.58-.23-.4,2-1.15,4.41-1.74,6.63-.64,2.37-1.37,5.14-2.09,7.72-.19.68-.38,1.36-.56,2-.11.39-.26.77-.41,1.15s-.27.72-.42,1.08-.21.49-.3.74a33.25,33.25,0,0,1-1.45,3.5,8.12,8.12,0,0,1-.65,1.05,3.87,3.87,0,0,1-1.74,1.41A3.64,3.64,0,0,1,986.59,181.53Zm2.85,8.1a2.65,2.65,0,0,1-.22-1.44,2.53,2.53,0,0,1,.51-1.35,1.27,1.27,0,0,1,.32-.28s.27,0,.32.05c1.54.19,3.29.36,5.09.52h0l5.39.46,1.39.08a12.85,12.85,0,0,1,2.19.23,1.08,1.08,0,0,1,.7,1c.1.67-.06,1.53.06,2.14a1,1,0,0,0,.11.28,2.71,2.71,0,0,0,.15.24c.1.14.18.27.16.38a39.16,39.16,0,0,1-5.12-.44c-4.15-.31-9.27,0-10.81-1.5A1.33,1.33,0,0,1,989.44,189.64Zm12.65,45.42h-.79c-2-.06-4.87-.39-5.48-1.11a7.2,7.2,0,0,1-.61-2.11c0-.1,0-.21-.07-.29a71,71,0,0,1-1.84-9,139.45,139.45,0,0,1-1.12-17.93c0-2.94,0-5.84-.08-8.67,0-.33-.41-1-.17-1.1a2.82,2.82,0,0,1,.82.08c1.65.18,3.34.35,5.05.52s3.45.35,5.18.56l1.76.2,1.05.14a2.39,2.39,0,0,1,.52.11.69.69,0,0,1,.13.3l0,.16a13.56,13.56,0,0,1,.27,2c.11,2.71.19,5.48.28,8.28q.08,2.44.18,4.92a180.54,180.54,0,0,0,2.1,22.86C1006.65,234.86,1004.59,235,1002.1,235.06Zm34.45.57c-.48,0-1,0-1.55,0s-6-.14-6.31-.57a2.15,2.15,0,0,1-.13-.55c0-.28-.09-.6-.12-.86-.1-.72-.16-1.45-.25-2.17-.61-5-.92-10-1.11-15-.07-1.91-.13-3.82-.19-5.72-.13-4.06-.26-8.1-.52-12.12-.22-3.52-.53-7-1-10.48h.12l2.37.05,1,0,.83,0,1,0c.33,0,.66,0,1,0a3,3,0,0,1,.75.12,6.15,6.15,0,0,1,.19,1.14c0,.17,0,.33.06.46q.37,2.8.7,5.67t.64,5.77c.38,3.58.75,7.18,1.12,10.78q.39,3.81.8,7.58c.59,5.47,1.23,10.83,2,15.93Zm-.15-47.32,2.1-.11c2.1-.11,4.18-.24,6.34-.37l.63-.06.47,0c.82-.07,1.77-.11,1.83.11a26.42,26.42,0,0,1,.6,3.38c0,.2.06.41.09.61q.24,1.53.45,3.11a91.74,91.74,0,0,1,.81,9.82l-8.92-.2h-.58a11.39,11.39,0,0,1-2.41-.08,1.86,1.86,0,0,1-.2-.79c0-.2,0-.4-.07-.6l0-.51c0-.2,0-.37,0-.55,0-.55-.08-1.06-.09-1.53,0-3.93.11-8-.6-11A10.72,10.72,0,0,0,1036.4,188.31Zm15.49,48a6.21,6.21,0,0,1-1.23,0c-1.69,0-3.18,0-4.72-.07-.51,0-1-.07-1.56-.13l-.58-.05-.75-.08a1.69,1.69,0,0,1-.91-.28,11.11,11.11,0,0,1-.18-1.57V234q-.23-1.57-.49-3.1t-.54-3.06c-.32-1.78-.65-3.57-1-5.37-.08-.47-.15-.95-.23-1.42a72.11,72.11,0,0,1-1-12.43c.78,0,1.6,0,2.44,0a44.67,44.67,0,0,0,7.29-.12c.22,0,.47-.1.7-.15a1.64,1.64,0,0,1,.54-.07s.09.16.14.38,0,.21.07.34c.07.39.12.84.17,1.12.42,2.73.89,5.42,1.29,8.16a70.51,70.51,0,0,1,.84,14.51c0,.14,0,.42,0,.76,0,.51,0,1.15-.08,1.69A2.36,2.36,0,0,1,1051.89,236.33Zm24.18-51.12c-2.11,0-4.21-.16-6.31-.28s-4.22-.26-6.36-.37c-7.24-.37-14.79-.6-22.15-.59-4.41,0-8.76.1-12.93.31a14.83,14.83,0,0,1-3,.18.27.27,0,0,1,0-.12c-.11-.44-.21-1.91-.28-2.46-2.31-18.9-4.53-37.6-7-56.12-1.05-8-2.13-15.88-3.3-23.76,2.9.3,5.61-.19,8.39.18l.07,0,.1,0a33.39,33.39,0,0,0,3.27.72c1.12.2,2.28.36,3.42.53,1.44.21,2.93.39,4.45.54a109.55,109.55,0,0,0,14.15.48,28.15,28.15,0,0,1,3.64-.1,12.23,12.23,0,0,1,1.47.27c.6.14,1.21.29,1.82.41.92.19,1.86.34,2.84.47s2,.21,3,.28c6.1.42,12.86,0,18.88.65l.5.05a13.06,13.06,0,0,1,1.32.17.74.74,0,0,1,.06.29c0,.24,0,.58.05.92s0,.67,0,.87c.13,3,.2,6.09.24,9.13.11,8.22,0,16.38-.27,24.13-.3,10.06-.71,20.22-.6,30.68,0,1.15.17,2.46.15,3.53h0a5.56,5.56,0,0,1-.1,1,1,1,0,0,1-.1.19,2.09,2.09,0,0,1-.27.42,15.26,15.26,0,0,0-1.08,1.26,32.81,32.81,0,0,0-1.54,3c-.12.24-.25.48-.39.72s-.23.42-.36.63-.33.5-.54.8a3.6,3.6,0,0,1-.71.75.88.88,0,0,1-.43.18Zm5.72,3.24a12.86,12.86,0,0,0-2,4.11,17.93,17.93,0,0,1-.27,1.83c-.09.23-.66.65-.87,1-.57,1-.78,2.49-1.67,2.84-.45.18-1.63.13-1.82-.22s.31-2.18.44-2.68a15.75,15.75,0,0,1,.8-2.3c1.58-3.65,3.91-6.27,5.87-9.53a19.63,19.63,0,0,1,1.15-2,3.36,3.36,0,0,1,.88.08c.05,0,.06,0,.06.13C1084.56,184.73,1082.9,186.77,1081.79,188.45ZM1102,234.38c-6.88-.36-12.09,1.54-18.87,1.48.74-8-.16-17,.12-25.49.07-1.88.17-4.23.28-6.17a8.67,8.67,0,0,1,.15-2s.79,0,1.17,0c6.4-.13,12.41-.18,18.59-.27C1101.8,211.29,1103.66,224.88,1102,234.38Zm26.79-94.72c.36,3.65-1,7-.69,11.24a12.61,12.61,0,0,1,.32,2.2c-.19,1.64-2.19,2.85-4.44,2.47a17.65,17.65,0,0,1-1.65-.64c-1.67-.53-4.61-.66-5.13-2.31-.42-1.35.53-2.39.84-3.71.77-3.36-1-10,.8-12.76a3.13,3.13,0,0,1,3-1.22,18.68,18.68,0,0,1,3.17.87,7.52,7.52,0,0,1,2.18.72A4.23,4.23,0,0,1,1128.75,139.66Zm-5.14,58.82c-2.64-.21-4.7.51-7.1-.1-.52-.13-1.65-.56-1.77-.83a14.18,14.18,0,0,1,.09-2.08c.23-4.53.35-8.39.56-12.82a11.63,11.63,0,0,1,.1-2.14c.07-.07.54,0,.64,0,.74-.07,1.32-.08,2-.14.51,0,2.62-.46,2.76-.06a53.47,53.47,0,0,1,2.09,8.48A39.28,39.28,0,0,1,1123.61,198.48ZM1120.45,95c2.44-1.14,5.76.36,7.87,1.21.45.18,1.56.54,1.65.77a10.41,10.41,0,0,1-.09,2.2c-.22,4.67-.36,8.67-.56,13.25a8,8,0,0,1-.09,2.26,3.68,3.68,0,0,1-1.17.28c-3.42.63-6-.79-9.27-.93.42-4.5,1.94-10.37.48-14.91a9.75,9.75,0,0,1-.67-1.79A3.36,3.36,0,0,1,1120.45,95Zm-2.14,112.56s-.92-.1-1.41-.16l-4.23-.46c-2.92-.31-5.78,0-6.59-2.22-.14-.37-.38-2.24-.09-2.45,0,0,.92.18,1.23.21,2.69.21,5.7-.66,8.38-.31,1.83.24,3,1,3.08,3.06C1118.72,205.82,1118.6,207.43,1118.31,207.59Zm18,18.25a11.84,11.84,0,0,1-.79,2.73,7.94,7.94,0,0,1-1.82.26c-4.55.59-8.9,1.14-13.23,1.73.74-9.31,1.48-18.63,2.27-27.89,4.9,1.44,10.4-.62,15.43.4C1136.85,209.81,1137.83,219.28,1136.29,225.84Zm16.13-110.14.8,6.25v0l-1.23,3h-.12l-7.64,0,0-.16,1.46-9.07.32-7.37.1,0,5-1.67,1.54,3.18Zm19.45-7.24.94,3-.29,6.56-2,8.09-5.06-.22-.48-2-.22-7.34.37-8.54,6.67.29Zm36.64,10.87.33,4.7h0l-1.2,2.37-6.08-1.25v-.06l-.36-4L1202,115l6.16.27Zm-2.2,26,.83,6-.2,0-7.53-.56-1-2v0l1.23-3.91.18-3.75,1.75-1.87.16,0,4.81,1.4Zm-42.91-7.69,6.66.29-.37,8.53-.85,7.27-.65,1.93-5.06-.22-1.26-8.2.29-6.62Zm-13-.43.12,9.51-.81,6.28-.11,0-6.07,1.24-.95-3.86v0l.84-7.27.82-6.3,6.16.27Zm47.35,28.93,7.64.09,0,.1-1.32,5.78-.2,4.71-.1,0-5,1-1.58-2.06.16-3.73-.9-4v0l1.18-1.88Zm-30.66,2.46.22,7.34-.37,8.54-6.66-.29,0-.1-.93-3,.29-6.56,2-8.09,5.06.22Zm-26.21,8.4-.22-7.33v0l1.27-3.74,6.06,1.8v.09l.26,6.22-1,9.61-6.17-.27v-.13ZM1028.8,132.88c.27-.86,1.7-1.21,2.85-1.17,1.63.06,2.8.42,4.2.37.42,0,.86-.19,1.3-.19a5.25,5.25,0,0,1,2.54.73c1.81,1.32-.47,3.84-.51,5.69,0,.44.3,1.09.23,1.27s-1.34.66-1.85.78a23.47,23.47,0,0,1-5.52.28c-.53,0-2.51.14-2.9.06a2.86,2.86,0,0,1-1-.93c-1.43-1.92.37-4,.67-5.93A8.35,8.35,0,0,1,1028.8,132.88Zm12-10.8c0,.26.14.53.13.78a2.52,2.52,0,0,1-.94,1.62,4.82,4.82,0,0,1-2.66.51c-2.29-.07-4.81-.9-7-.84a13.3,13.3,0,0,1-1.37.15c-.18-.06-.48-.79-.6-1.31-.4-1.58.44-3.13.44-4.41,0-.38-.16-.71-.15-1.06,0-1.63,2.14-1.88,4.12-1.81,1.55,0,3,.27,4.61.32.45,0,.93-.06,1.39,0a4.25,4.25,0,0,1,2.24.86C1042.44,118.27,1040.79,120.42,1040.82,122.08Zm4.82,11.48c.27-.86,1.7-1.21,2.85-1.17,1.63.06,2.8.42,4.2.37.42,0,.85-.19,1.3-.19a5.23,5.23,0,0,1,2.54.73c1.81,1.32-.48,3.84-.51,5.69,0,.44.3,1.09.23,1.27s-1.35.66-1.86.78a23.17,23.17,0,0,1-5.52.28c-.53,0-2.51.13-2.9.06a2.83,2.83,0,0,1-1-.92c-1.44-1.92.37-4,.66-5.94A6.48,6.48,0,0,1,1045.64,133.56Zm12-10.63c0,.25.14.53.13.78a2.5,2.5,0,0,1-.94,1.62,4.84,4.84,0,0,1-2.66.51c-2.29-.07-4.8-.9-7-.84-.29,0-1.21.2-1.37.15a2.94,2.94,0,0,1-.61-1.31c-.39-1.58.44-3.12.45-4.41,0-.38-.16-.71-.16-1.07,0-1.62,2.14-1.87,4.12-1.8,1.56,0,3,.27,4.61.32.45,0,.92-.07,1.39,0a4.33,4.33,0,0,1,2.24.86C1059.28,119.13,1057.62,121.28,1057.65,122.94Zm5.28-3.81c0-1.62,2.14-1.87,4.11-1.8,1.56,0,3.05.27,4.62.32.45,0,.92-.07,1.38,0a4.32,4.32,0,0,1,2.25.86c1.43,1.42-.22,3.57-.19,5.23,0,.25.14.53.13.78a2.51,2.51,0,0,1-.94,1.62,4.86,4.86,0,0,1-2.67.51c-2.29-.07-4.8-.9-7-.84-.29,0-1.22.2-1.38.15a2.89,2.89,0,0,1-.6-1.31c-.4-1.58.44-3.12.44-4.41C1063.09,119.81,1062.93,119.49,1062.94,119.12Zm10.78,21.9c-.1.29-1.35.66-1.85.78a23.27,23.27,0,0,1-5.53.27c-.52,0-2.51.13-2.89.06a2.9,2.9,0,0,1-1-.92c-1.43-1.92.37-4,.67-5.94,0-.27,0-.69,0-.95.27-.86,1.7-1.21,2.86-1.17,1.64.06,2.8.42,4.19.37.42,0,.86-.19,1.31-.19a5.26,5.26,0,0,1,2.54.73c1.8,1.32-.48,3.84-.52,5.69C1073.48,140.19,1073.78,140.84,1073.72,141Zm-45.64,8.49c.27-.86,1.7-1.21,2.85-1.17,1.63.06,2.8.42,4.2.37.42,0,.86-.19,1.3-.19a5.25,5.25,0,0,1,2.54.73c1.81,1.32-.47,3.84-.51,5.69,0,.44.3,1.09.23,1.27s-1.34.66-1.85.78a23.47,23.47,0,0,1-5.52.28c-.53,0-2.51.14-2.9.06a2.86,2.86,0,0,1-1-.93c-1.43-1.92.37-4,.67-5.93A8.35,8.35,0,0,1,1028.08,149.51Zm16.84.69c.27-.86,1.7-1.21,2.85-1.17,1.63.06,2.8.42,4.2.37.42,0,.85-.19,1.3-.19a5.23,5.23,0,0,1,2.54.73c1.81,1.32-.48,3.84-.51,5.69,0,.44.3,1.09.23,1.27s-1.35.66-1.86.78a23.17,23.17,0,0,1-5.52.28c-.53,0-2.51.13-2.9.06a2.83,2.83,0,0,1-1-.92c-1.44-1.92.37-4,.66-5.94A6.48,6.48,0,0,1,1044.92,150.2Zm28.08,7.46c-.1.29-1.35.66-1.85.78a23.27,23.27,0,0,1-5.53.27c-.52,0-2.51.13-2.89.06a2.9,2.9,0,0,1-1-.92c-1.43-1.92.37-4,.67-5.94,0-.27,0-.69,0-.95.27-.86,1.7-1.21,2.86-1.17,1.64.06,2.8.42,4.19.37.42,0,.86-.19,1.31-.19a5.26,5.26,0,0,1,2.54.73c1.8,1.32-.48,3.84-.52,5.69C1072.75,156.83,1073.06,157.48,1073,157.66Z"/><path class="cls-2" d="M432.91,56.86a14.09,14.09,0,0,0-4.2-.73c-22.06-1.48-65.08-2.14-69.59-3.66s-6.55.49-5.64.09c-.74,5.43-1.55,16-2.26,21.35a1.43,1.43,0,0,1-.69,1,6,6,0,0,1-2.07.88c-.85.23-1.65.67-2.19.73a25.14,25.14,0,0,1-3.45-.14c-3.52-.19-7.1-.19-10.72-.07-13,.42-25.1,1.83-38.25,1.83a16.17,16.17,0,0,0-3.57.07,19.76,19.76,0,0,1-3.14,1c-3.21.4-6-.6-9-1-.75-.09-1.68,0-1.88-.15a5.16,5.16,0,0,1-.25-1.17c-1.14-5.75-.63-12.18-.63-18.88a17.29,17.29,0,0,0-.06-3,9.46,9.46,0,0,0-2.26-.37c-.91-.16-1.52-.34-2.19-.44a20.83,20.83,0,0,0-4.82.22c-10.49.68-19.84-.83-29.15-1.69a100.26,100.26,0,0,0-19.63-.07c-3.38.38-6.35.52-7.71,3-.94,1.73-1,4.84-1.19,7.61a13.57,13.57,0,0,1-.31,2.71c-.08.07-1.25-.24-1.88-.22-3.47.09-5.61,1.79-8.91,1.61-1.34-.07-2.7.16-4,.07-1.11-.07-2-3.1-2.33-4.39a8.26,8.26,0,0,1-.37-1.9c.06-.4.64-1,.87-1.47,1.34-2.63,1.49-6.66,1.32-10.9-.12-2.73-.7-5.5,1-6.29,1.08-.51,2.67,0,2.88-1.17.11-.61-.41-.82-.57-1-1.84-1.62-3.68-3.37-5.39-4.9s-3-2.78-4.64-4.1a9.45,9.45,0,0,0-1.75-1.17c-.3,0-1.21,1-1.64,1.32-3.43,2.76-6.45,5.31-9.84,7.9-.5.39-1.6.79-1.76,1.1a6.19,6.19,0,0,0-.12,2c.09.26.59.45.81.66s.69.58.75.66a7.82,7.82,0,0,1,1,4.24c.1,4.28-.74,9,.19,12.59a15.29,15.29,0,0,1,.69,1.9,7.24,7.24,0,0,1-.44,2.12,3,3,0,0,0,0,.59,4.62,4.62,0,0,1-.5.95c-1,1.89-1.89,3.11-4.07,3.66s-5.57-.17-8.34.07c-.42,0-2.23.24-2.44.58a9.4,9.4,0,0,0-.13,2c0,4.35.86,7.63.69,12a11.18,11.18,0,0,1,0,2,11.24,11.24,0,0,1-2.26.22l-7,.58a70.86,70.86,0,0,1-9.46.59c-5.49-.18-11.32.25-16.86.51a8,8,0,0,1-2.38,0,13.34,13.34,0,0,1-.18-2c-.22-2.15-.39-4.15-.63-6.07C118.27,62.82,116,45.6,113.73,28c-.17-1.27-.72-3-1.26-3.07a7.24,7.24,0,0,0-1.51.37c-8,1.77-14.81-2.61-23.14-1.61a7.65,7.65,0,0,1-1.68.22c-.23-.1-.38-.59-.44-.73-1.28-2.84-1.84-6.8-2.07-11.71a47.33,47.33,0,0,1-.13-6.59c.27-2.37-.25-4.09-2-4.61s-4.14.06-6,.37c-.27,0-1.8.09-1.95.37a15.41,15.41,0,0,0,.13,2.63c.23,5.83.38,10.83.56,16.39a14,14,0,0,1,0,2.86c-2.2,1.11-6.31,2.73-9.59,1.61a8,8,0,0,1-.69-2.34C62.78,17,62.57,8.87,62.57,2.93c0-.48-1.17-1.27-1.75-1.47-2.17-.72-4.27.42-6,1a9.18,9.18,0,0,0-1.13.36,7.57,7.57,0,0,0-.06,1.32c-.36,6.14.8,11.32.56,17.12-.06,1.57.12,2.55-.56,3.07-2.13,1.63-6,1.78-7.52,4.25a8.76,8.76,0,0,0,0,2.41c.41,10.1,3.25,18.35,2.51,29.2a17.12,17.12,0,0,1-.19,2.12c-.26.25-2.36,0-3.13,0-3.18,0-6.45.18-9.28.29-12.44.5-24.31,1.6-36.05,2.49C1.37,84,1.15,94.85,1.87,111.3c.21,4.62,1.91,34.14,2.91,38.2,3,12,1.38,62.11,4,61.7C20,209.44,89.63,212.7,112,217.56a59.28,59.28,0,0,0,7.84,1.32c.29,0,1.09.82,1.32,1s1.12.89,1.13,1.1c0,.62-1.73,1.44-2.19,1.54a12.93,12.93,0,0,0-1.63.14,8.34,8.34,0,0,0-2.7,5.34c-.32,1.83-.25,3.87-.5,6.3-.06.6,1,1.38,1.44,1.75a29.93,29.93,0,0,0,5.08,3.37c2.5,1.38,4.88,2.7,7.15,4.1.15.09,1-.67,1.38-1,5.76-5.06,12.7-7.78,19.38-11.64.86-.5,2.27-1.59,3-1.61a12.56,12.56,0,0,1,2.57.58c4.28,1,8.54,2,12.85,2.93a6.41,6.41,0,0,1,3.95,2.63c.82,1.45-.59,2.22-1.44,2.71-2.42,1.39-6.72,2.51-6.14,6.81.13.93.62,1.61.82,2.49a27.58,27.58,0,0,0,.62,3.07c1.94,5.27,7.83,6.19,13.17,7.61a10.75,10.75,0,0,0,2.63.81c.54-.05,1.67-1.47,2.32-2,4.93-4.42,9.35-8.56,14.17-13,.46-.41,2.17-2.13,2.57-2,6.08,1.24,12.16,3.46,18.55,4.46,2.2.34,4.43.45,6.65,1,16.83,3.8,34.64,5.95,53.23,7.68,9.2.86,18.51,1.77,27.9,2.34,9.58.59,19.06,1.54,28.59,1.54,4.77,0,9.52-.5,14.29-.73s9.59-.5,14.36-.73a473.79,473.79,0,0,0,54.8-5.86,8.86,8.86,0,0,0-.06-1.68c-7.25-.44-15,.05-22.32.14-.73,0-3,.22-3.19-.07a14,14,0,0,1,.37-1.68c3.17-14.15,4.45-30.43,7.34-44.56.74-3.62.94-7.44,1.44-11.12.06-.46,0-.65.12-.73a12.27,12.27,0,0,1,2.69,0,10.48,10.48,0,0,1,2.7,0c.26.1.06,0,.19.22s0,0,.19.07a25.54,25.54,0,0,0,3.33.22c2.31.22,4.27.62,6.64.22.89-.15,2.66-.69,2.57-1.39-1.34-10.85-5.39-19.05-9.15-27.07-.53-1.12-1.19-2.29-1.63-3.51a6.1,6.1,0,0,1-.06-1.47c.06-.27.24-.22.31-.44s-.07-.34-.06-.44a11.36,11.36,0,0,1,.25-1.32c2.72-13.08,5.39-26.37,8-39.37,2.86-14.12,5.89-28,8.59-42a1.08,1.08,0,0,1,.69-.8c.73-.41,2.58-1,2.82-1.91a37.32,37.32,0,0,0,.63-3.73c.35-2.14.6-5.35,1.38-7.32C433.52,60.36,434.57,57.58,432.91,56.86ZM152.73,104.35a6.53,6.53,0,0,1,1.63.81,10.23,10.23,0,0,1,.31,1.91c.61,4,1.12,7.38,1.76,11.42a12,12,0,0,1,.25,1.9c-.23.88-3.08,1.31-4,1.46a26.78,26.78,0,0,0-3.39.66,5.89,5.89,0,0,1-1.07.29,9,9,0,0,1-.81-1.91c-1.62-4.59-1.19-11.76-1.88-17.34A14.87,14.87,0,0,1,152.73,104.35ZM144,181.27c0-1.65-.17-2.94.94-3.15.94-.18,1.44.26,2.31.66.4.18,1.48.37,1.64.58a22.36,22.36,0,0,1,.37,2.56c.79,6.24.85,12.87,1.32,19.39-1.21-.41-2.46-.81-3.83-1.24-.36-.11-1.11-.19-1.25-.37a13.88,13.88,0,0,1-.44-2.41A83.94,83.94,0,0,1,144,181.27Zm5.2,24.29c-2.33,2.91-6.22-.28-8.4-1.46C143.49,202.29,147.21,204.29,149.21,205.56Zm-15.42,5c4,0,6.22,2.15,9.34,3.22A10.48,10.48,0,0,1,133.79,210.61Zm4.07,11.49c-2.37,2.61-6.5.15-8.91-1.24a11.28,11.28,0,0,1-1.88-1c-.14-.31,0-.67.06-1A24.49,24.49,0,0,1,137.87,222.1Zm3.32-75.3c-1.51-.76-3,0-4.39.73-.91.49-1.94,1.27-2.88.88-1.27-.52-1-2.74-.94-4.39.21-3.54-.88-6.39-1.38-9.51a12,12,0,0,1-.25-3.37c.25-.92,2.18-1.26,3.32-1.32,1.62-.08,3.06,0,4-.51.14-.07.09-.13.19-.07a7.69,7.69,0,0,1,.68,1.76C140.91,135.37,140.63,141.63,141.19,146.8Zm-10.85-45.51a5,5,0,0,1,1.76-.08c.94.08,2.3.58,3.38.66.51,0,1.84-.27,2-.14a10.36,10.36,0,0,1,.43,2c.84,5,.13,11.83.95,16.76-3-.28-4.72,1.82-7.46,1-.6-.17-1.86-.92-2-1.54a11.36,11.36,0,0,1,.07-1.54c-.11-3.13-.74-6.14-.94-9.22A12.72,12.72,0,0,1,130.34,101.28ZM6.84,71.64c-.75,0-2.48,0-2.76-.22-.54-.52-.06-2.15-.31-3.14,10.55-.9,22.11-1.69,33.48-1.83,1.89,0,3.8,0,5.7-.14s4-.3,5.83-.29a2.49,2.49,0,0,1,.56,0c1,.31.44,2.65.69,3.95-7.11.54-14.68,1.28-22.64,1.46-5.59.13-11.6.22-17.55.22C8.95,71.64,8,71.71,6.84,71.64Zm8.65,26.41c-.06,0-.26-1.21-.31-1.46-.58-2.56-1.09-4.46-1.56-7.1a11.56,11.56,0,0,1-.44-3c.19-1,2-1.68,3-1.76,2-.14,4.08,1,6.21.81.39,0,1-.37,1.19-.3A16.45,16.45,0,0,1,24.51,88a58.57,58.57,0,0,1,2,9c-3.2.35-6.26.58-9.72,1C16.4,98,15.64,98.19,15.49,98.06Zm4.83,18.88a54.73,54.73,0,0,1-.56-8.7,7.83,7.83,0,0,1,.06-1.76c.09-.16,1,.48,1.19.51a3.54,3.54,0,0,0,1.63-.14c1.83-.57,3.23-2.41,5.14-2.71s2.22,1.76,2.44,3.66A31.17,31.17,0,0,0,32,116a7.49,7.49,0,0,1,.75,2.92c0,1.37-.18,1-1.13.88-3-.3-5.07,2.09-7.59,2.41C21,122.6,20.67,119.76,20.31,116.94Zm14.39,52.17c-3-1.22-6.29.29-9.62.35-.3-4.49-3.25-8.36-2-13.37.06-.27.09-.93.31-1.14.39-.39,2.94-.7,3.83-.75,2.21-.12,4.87.38,6,1.38a2.24,2.24,0,0,1,.7.92c.11.6-.31,1.36-.31,2C33.58,162.22,36.74,165.67,34.71,169.11Zm.61-22.92c-3.47-1.22-7.38.3-11.29.34-.34-4.48-3.81-8.35-2.38-13.37.08-.27.11-.93.37-1.15.46-.38,3.45-.7,4.49-.74,2.58-.12,5.71.38,7.07,1.38a2.31,2.31,0,0,1,.82.92c.13.6-.36,1.36-.36,2C34,139.3,37.7,142.75,35.32,146.19Zm-.64-47.4a5.85,5.85,0,0,1-1.13-2.86c0-.45.08-.93.06-1.39-.13-2.95-2-6.71-.69-9.3a3.69,3.69,0,0,1,2.26-1.61c.47-.08,1,0,1.44,0,1.61-.12,3.15-.58,4.76-.73,2.05-.19,4.28.18,4.45,3.07,0,.64-.1,1.22-.06,1.9.11,2.28,1.14,5,.88,7.83a6.84,6.84,0,0,1-.5,2.34c-.17.1-1.15-.21-1.44-.22-2.3,0-4.84,1.55-7.21,1.76A3.45,3.45,0,0,1,34.67,98.79Zm5,21.73c-.08-.31.17-1.48.13-2.27-.21-3.29-2.82-7.68-1.06-10.1a3.92,3.92,0,0,1,2.57-1.39c.47,0,.93.28,1.38.29,1.46,0,2.63-.63,4.33-.81a2.77,2.77,0,0,1,3.07,2c.11.46.06,1.2.12,1.68.5,3.39,2.56,7.06,1.26,10.54-.23.61-.71,1.57-1,1.68a26.29,26.29,0,0,1-3,0c-2,.11-3.95.37-5.77-.29C41.09,121.65,39.76,121,39.62,120.53ZM42.49,146c-1.23-3.58-.2-8.3-1.48-11.88-.19-.52-.72-1.2-.65-1.72.15-1.14,2-1.44,3.8-1.49,1.35,0,3.93.18,5.65.34.56,0,1.59,0,1.85.11a4.35,4.35,0,0,1,1.11,1.26,14,14,0,0,1,.56,3.61,54.2,54.2,0,0,1,1,9.24c0,.5.14,1.7-.09,1.89-.46.4-4.29.45-5.27.46-.8,0-1.67,0-2.87-.06a20.31,20.31,0,0,1-2.88-.06C43,147.61,42.66,146.46,42.49,146Zm13.24,23.12c-.39.4-3.62.45-4.46.46-.67,0-1.41,0-2.43-.05a14.23,14.23,0,0,1-2.42-.06c-.23-.1-.49-1.25-.62-1.72-1-3.58-.17-8.3-1.25-11.88-.16-.52-.6-1.2-.55-1.72.12-1.15,1.67-1.44,3.21-1.49A43.7,43.7,0,0,1,52,153a13.82,13.82,0,0,1,1.56.11,4.15,4.15,0,0,1,.94,1.26A16.26,16.26,0,0,1,55,158a63.71,63.71,0,0,1,.86,9.24C55.81,167.72,55.92,168.91,55.73,169.11Zm64.83,44.72a12.62,12.62,0,0,1-.31-2c-1.46-9.31-.75-20.54-1.44-31a11.17,11.17,0,0,0-.19-2.27,2.48,2.48,0,0,0-2.19-1.53c-1.58-.09-2.94,1-4.14,1.39-2.74.81-6.85,0-10.1.22a12.56,12.56,0,0,0-2.32.36c-.64.17-1.85.4-2,.73a22.4,22.4,0,0,0,0,3.59v25c-9-2.62-16.73-7.18-24.45-11.71a6.48,6.48,0,0,1-1.44-1,13.35,13.35,0,0,1-.38-2.12,492.6,492.6,0,0,1-7.34-65.57c-.06-1.61,0-3.3-.12-4.9a27.1,27.1,0,0,0-.63-2.78c-6-28.34-11.89-57.67-14-90.08,9.89-.39,18.8-1.4,28.34-2.2,3.14-.26,6.34-.26,9.65-.44a72.92,72.92,0,0,1,20.69,2,9.79,9.79,0,0,1,2.51.73,23.89,23.89,0,0,1,.37,2.71c3.86,27.62,6.88,56.91,10.16,85.32,2.59,22.5,5,44.06,8.4,65.5,1,5.94,2,12.26,2.57,19a17.57,17.57,0,0,0,.25,2.78c.28.82,1.32,1.12,2.32,1.09-1.18,1.9-4.57.78-5.26,3.15a23.19,23.19,0,0,0-.31,3.8,8.33,8.33,0,0,1-.07,1.32c-.17.3-1.55.47-2.19.51a9.22,9.22,0,0,1-4.45-.88C122,214.44,120.75,214.15,120.56,213.83Zm7.65,18.37c-2.61-.33-4.62-3.95-7.14-4.83-.34-.12-1-.15-1.07-.22-.24-.21-.16-.89-.37-1.17,5.23-.09,8.16,2.53,11.79,4.32C130.69,231.29,129.88,232.4,128.21,232.2Zm23.83-10c-.13,2.07-1,4.11-2.39,5a23,23,0,0,1-2.76,1.17A104.89,104.89,0,0,0,131.79,237c-.53.36-2.1,1.63-2.38,1.54s-.41-1-.44-1.46a5.57,5.57,0,0,1,.06-1.76c.15-.37,1-.74,1.51-1,2.24-1.26,6.46-2.07,6-6.15-.06-.49-.53-1.46-.44-1.76s1.18-.6,1.69-.73c1.73-.44,4.35-.44,5-2.27.4-1.21-.23-2.06-.19-3.07a3,3,0,0,1,1-1.83c1.84-1.66,6.26-1.53,5.7-5.34-.08-.53-.48-1.46-.43-1.61s1.05-.76,1.31-1c.62-.46,1-.75,1.39-1.1,0,0,.06,0,.06.07C150.7,213.7,152.29,217.95,152,222.17Zm5.64-75.52a6.69,6.69,0,0,1-.37,1.76,15.62,15.62,0,0,1-2-.43,36.68,36.68,0,0,1-4.32-.52c-.56-.13-1.59-.33-1.76-.66a18.61,18.61,0,0,1-.19-2.12c-.4-4.6-.66-8.08-1-12.73a12.75,12.75,0,0,1-.19-2c.13-.29,1.68-.71,2.26-.88a12.39,12.39,0,0,1,2.7-.44c1.8-.15,4.39.6,4.51,2.78a12.86,12.86,0,0,1-.25,1.61C156.5,137.65,158.37,142,157.68,146.65Zm-13.31,26.73c-1.51-.76-3,0-4.39.73-.91.49-1.94,1.27-2.88.88-1.27-.52-1-2.74-.94-4.39.21-3.54-.88-6.39-1.38-9.51a12,12,0,0,1-.25-3.37c.25-.92,2.18-1.26,3.32-1.32,1.62-.08,3.06,0,4-.51.14-.07.09-.13.19-.07a7.69,7.69,0,0,1,.68,1.76C144.08,162,143.81,168.21,144.36,173.38Zm16.49-.15a6.69,6.69,0,0,1-.37,1.76,15.62,15.62,0,0,1-2-.43,36.68,36.68,0,0,1-4.32-.52c-.56-.13-1.59-.33-1.76-.66a18.61,18.61,0,0,1-.19-2.12c-.4-4.6-.66-8.08-1-12.73a12.75,12.75,0,0,1-.19-2c.13-.29,1.68-.71,2.26-.88a12.39,12.39,0,0,1,2.7-.44c1.8-.15,4.39.6,4.51,2.78a12.86,12.86,0,0,1-.25,1.61C159.68,164.24,161.55,168.62,160.85,173.23ZM396.17,62.79c.07-1,.6-3,1.13-3.22a11.36,11.36,0,0,1,2-.22,56.12,56.12,0,0,1,6-.88,11.3,11.3,0,0,1,2.25,0,5.47,5.47,0,0,1,1.88.44c.19.36-.21,1.66-.31,2.34-.31,2.05-.55,3.36-.88,5.56-.05.36,0,1-.19,1.1a14.47,14.47,0,0,1-2.88,0h-5.64c-.66,0-2.46.28-2.82,0a13,13,0,0,1-.5-3.07A16.68,16.68,0,0,1,396.17,62.79Zm-31.1-4.17a15.15,15.15,0,0,1,.19-1.76c.22-.29,2.24-.26,2.76-.22,2.39.2,4.48,1.58,7.09,1.39.33,0,1-.33,1.32-.22.47.18.71,1.54.62,2.56-.16,1.9-1.53,3.59-1,5.71-2.9,0-5.79.22-8.78-.07-.8-.08-2.18-.07-2.57-.44a4.53,4.53,0,0,1-.44-2A22.29,22.29,0,0,1,365.07,58.62ZM356.23,55s.73.46.88.51c1,.36,2.88,0,4.26.15.46,3.57-.58,6.56-.75,9.88H355.3C355.19,61.85,355.17,57.44,356.23,55ZM362,124.26c3.49,1.05,8.36-.21,11.16,1.68-1.27,3.61-.72,8.86-2.13,12.44-.21.52-.39,1.26-.63,1.39a13,13,0,0,1-3.45.07,57.82,57.82,0,0,1-7.77-1,6.49,6.49,0,0,1-1.5-.22c-.36-.34-.42-2.54-.38-3.37.21-4.37,2.3-7.9,3.26-11.27C360.67,123.59,361.44,124.09,362,124.26ZM276.67,83.2c12.8-.73,25.88-.59,37.74-2.34a18.26,18.26,0,0,1,2.26-.44c1.23,0,2.55.35,3.82.44a99.59,99.59,0,0,0,12.85-.22c2.89-.18,5.85-.21,8.78-.37a54.16,54.16,0,0,1,5.45,0,10.58,10.58,0,0,1,1.63.14,21.57,21.57,0,0,1,.06,2.2c.1,2.5-.1,5-1.38,5.78a10,10,0,0,1-2.7.51c-11.64,2-25.51,1.22-37.56,2.78-1.88.24-3.75.76-5.4.88-1,.08-2.14-.12-3.2-.14-7.34-.17-15,1.28-22.38.66ZM265.51,203.44a10,10,0,0,1,0,2.71,7.53,7.53,0,0,1-1.63.37c-5.72.73-5.69-5.22-6.33-11.27-.21-2-.63-4-.88-6.59a13,13,0,0,1-.19-2.27c.11-.18.86-.13,1-.14,7.45-.85,5.1,10,7.27,15.59A12.31,12.31,0,0,1,265.51,203.44ZM263,140.87c-.18,2.59-.44,5.4-.44,8a28.4,28.4,0,0,0,1.57,9.59,35.47,35.47,0,0,1-12.73,1.61c.68-5.91.38-13,.38-19.83a14.49,14.49,0,0,1,0-2.85c.18-.36,2.31-.83,2.75-1a16.65,16.65,0,0,1,3.32-.58,10.05,10.05,0,0,1,4.2.58,4.48,4.48,0,0,1,1.13,1.68A16.87,16.87,0,0,1,263,140.87ZM250.09,90.6a31,31,0,0,1,.44-5.42,4.53,4.53,0,0,1,3.26-2.63,17.78,17.78,0,0,1,2.76.51c1.9.3,3.53.5,5,1.54.53.36,1.5,1.22,1.56,1.83a12,12,0,0,1-.44,2.12c-.93,5-.68,11.7-.13,17.12-3.37.53-6.64.94-10.28,1.39-.37,0-1.3.3-1.51.15a11.55,11.55,0,0,1-.44-2.49A70.41,70.41,0,0,1,250.09,90.6ZM241,184.78a17.35,17.35,0,0,1,.13,2.56c.28,5.32.45,9.93.75,15.37a18.46,18.46,0,0,1,.12,2.49c-.12.33-1.33.81-1.88.95-2.55.67-4.77-.25-7.59-.07a52,52,0,0,1,.56-11.64,68.3,68.3,0,0,1,2.13-10.1c.15-.47,2.41.08,2.95.14.72.09,1.34.11,2.13.22C240.43,184.72,240.92,184.69,241,184.78Zm-3.08-37.91c.34,1.59,1.38,2.86.94,4.47-.53,2-3.67,2-5.45,2.63a17.41,17.41,0,0,1-1.75.73c-2.4.39-4.55-1.11-4.77-3.07a16.6,16.6,0,0,1,.31-2.64c.29-5-1.21-9.1-.88-13.46a5.12,5.12,0,0,1,1.63-3.74,7.46,7.46,0,0,1,2.32-.8,17.24,17.24,0,0,1,3.38-1,3.3,3.3,0,0,1,3.26,1.53C238.88,134.93,237.06,142.83,237.93,146.87ZM224.51,84.45c.1-.27,1.28-.68,1.76-.88,2.24-1,5.78-2.68,8.4-1.24a4.18,4.18,0,0,1,2,2.85A12.6,12.6,0,0,1,236,87.3c-1.51,5.39.19,12.46.69,17.85-3.47.09-6.23,1.72-9.91.88-.4-.09-1.14-.21-1.26-.37a11,11,0,0,1-.12-2.71c-.27-5.49-.47-10.29-.76-15.88A14.67,14.67,0,0,1,224.51,84.45ZM216.92,184c1.75-.29,3.29.94,4.83,1.17-1.34,6-3.72,11.79-5.77,17.56a16.68,16.68,0,0,1-.88,2.41,11.62,11.62,0,0,1-2.82,0h-2.82c1.16-6.2,3.82-11.51,5.45-17.49C215.36,186.1,215.42,184.3,216.92,184ZM183.57,64.47c0-1.91.9-3.17,2.38-3.59H186c1,.09,1.92,2.14,2.32,3.15a22.69,22.69,0,0,1,1.25,4.31c-.94-.26-2.82.11-4.26.22a6.73,6.73,0,0,1-1.25.07c-.17-.13-.2-1.14-.25-1.39a9.43,9.43,0,0,1-.31-1.31c0-.19.14-.06.18-.22C183.8,65.32,183.57,64.83,183.57,64.47ZM176.86,45a5.72,5.72,0,0,1,1.25-.07c3.52-.36,6.18-2.3,9.91-1.83a5.09,5.09,0,0,1,1.44.29,29.21,29.21,0,0,1-.06,3.14c-.11,2.86-.13,4.66-.25,7.76,0,.38,0,1.48-.06,1.54s-1.09.11-1.51.14c-3.76.33-7.43.53-11.1.88.06-3,.15-5.69.25-8.93A14,14,0,0,1,176.86,45Zm-.06,19.61c.24-.44.54-1,.87-1.54.46-.69,1.24-2.25,2.38-1.61.88.49.56,4.5.56,5.78a15.63,15.63,0,0,1-.13,2,25.84,25.84,0,0,1-3,.15c-1.09.06-1.62,0-2.63.07A49,49,0,0,1,176.8,64.62Zm1.75,180c-3.11-.26-5.48-3-8.46-3.29,2-.33,3.25-2.74,5.27-1.68.45.24.67.93,1.19,1.24a7.21,7.21,0,0,0,1.56.36c1.41.37,2.92.83,4.46,1.17C181.68,243.77,180.66,244.81,178.56,244.64Zm9.59-17a10.41,10.41,0,0,1,1.94.36c.18.18-.78.9-1.06,1.1-3.35,2.3-9.52,1.6-12.85-.29a6,6,0,0,1,4.52-2.41C183.46,226.18,185.8,227.09,188.15,227.66Zm-6.83-11.49c-.07-.21.2-.34.31-.44,1.12-1,2.82-2,4.07-2.86.46-.33,2.1-.06,2.88,0,1.89.15,3.4.25,5.33.37a10.26,10.26,0,0,1,2.63.15,5.61,5.61,0,0,1,.69,1c0,.41-.71,1.11-.82,1.25a5.51,5.51,0,0,1-3.76,2.19c-3.24.28-6.11-1.53-8.78-1.76A8.83,8.83,0,0,0,181.32,216.17Zm14.1,27.37a29.11,29.11,0,0,1-2.82,1.68,26.25,26.25,0,0,0-2.63,2.2l-6.52,5.49c-.3.25-1.19,1.07-1.32,1s-.52-1.17-.62-1.53a8.58,8.58,0,0,1-.32-1.83,11.4,11.4,0,0,1,0-3.14c.13-.42,1.47-1.17,1.82-1.39a27.12,27.12,0,0,0,3.7-2.63c.45-.4,1.39-1.19,1.51-1.69a26.27,26.27,0,0,0,0-4.46V235a10.86,10.86,0,0,1,0-2.2c.15-.55,1.54-1.3,1.82-1.46a21.13,21.13,0,0,0,4-2.41,4.45,4.45,0,0,0,1.38-1.91c.29-1.43-.08-2.83,0-4.17s.39-3.26,1.88-3.51c.16,0,.83-.19,1,0a11,11,0,0,1,.06,1.9c.22,4,1.11,7.91,1.13,12C199.46,238.24,197.94,241.52,195.42,243.54Zm9.66-5.42a5.29,5.29,0,0,1-1.31-.66,22.87,22.87,0,0,1-.51-3.59c-2.06-17.62-3.55-35.19-5.39-53.35a13.18,13.18,0,0,0-.19-1.83c-.26-.69-2-1.36-2.88-1.54-3.26-.62-6.3.83-9.59.81a13,13,0,0,0-1.88-.22c-.46.09-1.44,1.37-1.51,1.68a10.44,10.44,0,0,0,.13,2.05c.68,9.25,2.12,17.33,3.33,26.12a15.47,15.47,0,0,1,.25,1.83c-.1.37-1.49,1.23-2,1.61l-4.08,3c-.73.55-1.77,1.1-2.13,1.83-1.52,3.12,2.13,8.75-1.82,9.44-1.11-21.68-2.6-43-5.7-62.49-.47-2.91-.6-5.87-.88-8.86-2.06-22.2-5.13-43.32-5.89-67.18-.05-1.58.07-3.25-.06-4.83s-.93-3.43-1.06-5.56a9,9,0,0,1,.06-2.12,9,9,0,0,1,2.45-.44c5.74-.88,12.58-.38,18.81-.66,3.9-.17,7.34,0,10.47-.8a50,50,0,0,1,14.42-1.32c-1.59,30.2,1.47,59.77,2.95,88.33.3,5.84.69,11.75.69,17.71a49.77,49.77,0,0,1-.44,8.63c-1.1,6.17-3.49,11.23-5.71,16.47a13.49,13.49,0,0,0-1.25,3.15c-.14,1.95,1.45,4.24,2.83,4.61a16.37,16.37,0,0,0,3.63,0c1.2,0,2.51.25,2.95,1.1a15.11,15.11,0,0,1,.5,3.51c.94,8.39.58,18.62,1.89,26.34A36.67,36.67,0,0,1,205.08,238.12Zm17.06,4a7.68,7.68,0,0,1-1.95-.36,15.54,15.54,0,0,1-.88-3.29c-1.72-7.89-.8-19.2-2.26-27.3,5.36-1.09,11.27,1.52,16.49-.07,1,11.1,1.86,22.28,2.76,33.44C231.67,243.74,227,243,222.13,242.15ZM251.35,214c-.85,2.6-3.9,2.19-7,2.49l-4.52.44c-.52,0-1.45.18-1.5.14-.31-.2-.45-2.13-.44-2.78.06-2.44,1.31-3.34,3.26-3.59,2.86-.36,6.09.77,9,.59.33,0,1.28-.25,1.31-.22C251.72,211.38,251.49,213.61,251.35,214Zm4.76,35.57c-1.94-11.42-.11-27.62-1.94-38.93,6.61.27,13,.49,19.88.8a12.12,12.12,0,0,1,1.25.08,11.23,11.23,0,0,1,.19,2.41c.15,2.32.29,5.13.38,7.39.4,10.18-.45,21,.44,30.51C269,251.78,263.45,249.36,256.11,249.61Zm28.22-42.81c-.19.41-1.46.45-1.94.22-1-.44-1.2-2.2-1.82-3.44-.23-.44-.84-1-.94-1.24-.19-.55-.18-1.6-.31-2.19a17,17,0,0,0-2.19-5c-1.21-2-3-4.53-2.82-8.12,0-.11,0-.09.06-.14s.76-.17.94-.07a23.41,23.41,0,0,1,1.26,2.42c2.13,4,4.65,7.15,6.39,11.56a21.8,21.8,0,0,1,.88,2.78C284,204.18,284.55,206.32,284.32,206.8Zm35.92,44a16.84,16.84,0,0,1-.19,2c-.23.35-1.73.37-2.38.44a59.79,59.79,0,0,1-6.71.07,5.83,5.83,0,0,1-1.32,0c-.28-.24-.34-3.48-.37-4.17-.61-10.08.9-18.38,2-27.07a9.17,9.17,0,0,1,.37-2.2,7,7,0,0,1,1.32.29c3,.59,7.06.23,10.4.37C323.64,231.86,321.44,240.82,320.25,250.78Zm4.08-35.27a17.85,17.85,0,0,1-3.2,0H311.6a131,131,0,0,1,1.19-15.44,46.46,46.46,0,0,1,.69-4.76c.1-.42,2.64,0,3.13.07,3.08.29,6,.56,9,.81-1.17,3.62-.88,9.19-.88,14.56,0,.75,0,1.52-.12,2.49A9,9,0,0,1,324.33,215.51Zm6.33,35.13a11.63,11.63,0,0,1-.25,1.69c-.35.49-2,.48-2.7.51a26.44,26.44,0,0,1-3-.07c2.15-17.1,3.16-36.75,5.08-54.59a13.87,13.87,0,0,1,.25-1.9c.82-.29,2.78,0,3.77,0h3.7C335.36,214,332.78,232.47,330.65,250.64Zm7.15-61.84a24.19,24.19,0,0,1-.31,3.07c-.24.23-2.5-.23-3.26-.29a344.43,344.43,0,0,0-37.49-.58c-4.57.15-9,.43-13.55.44-.69,0-1.49-1.46-1.88-2.12-1-1.7-1.52-3.53-2.51-5.27-.42-.74-1.44-1.64-1.57-2.27a35.5,35.5,0,0,1,0-5.41c0-12.52-.56-24.69-1-36.74-.46-12.72-.8-26.34-.44-39.81a17.9,17.9,0,0,1,.12-2.49s1.38-.17,1.94-.22c8.57-.77,18.58.61,26.4-1a32.2,32.2,0,0,1,3.51-.73,27.77,27.77,0,0,1,3.88.22,103,103,0,0,0,19.87-.73,52.13,52.13,0,0,0,7.15-1.32c.09,0,.12-.06.19-.07,3-.37,5.87.28,9,0C344,124.73,341,156.55,337.8,188.8Zm15.11-14.56c-.23-.69-.19-1.55-.37-2.27a31.53,31.53,0,0,0-2.07-5.56c-1.05-2.31-2.43-5.26-2.57-7.9.89.36,3.07-.47,4,0,.44.22,1.27,3,1.51,3.66,3.23,8.62,6.14,18.61,9,27.37-5.5-.8-6-9.21-8.58-13.9A11.5,11.5,0,0,1,352.91,174.24Zm21,32.28c-2.19,14.32-3.89,28.37-6.33,42.51a17,17,0,0,1-.5,2.85c-.54,1-3.35,1.25-4.82,1.17-1.93-.11-3.52-.35-5.58-.29,1.49-14.54,4.23-28.35,6-43.1a20.82,20.82,0,0,1,.32-2.93,21.83,21.83,0,0,1,2.56-.44c2.67-.42,5.35-.69,7.9-1,.08,0,.47-.15.63-.07S374,206.13,373.91,206.51Zm1.82-7.69c-1.18,2.34-5.15,1.63-8.34,2-1.36.15-2.38.7-4,.51,0-.36.26-.76.31-1.39.15-1.58-.31-4.24.56-4.83a11.88,11.88,0,0,1,2.76-.36c2.67-.33,5.71-.7,8.09-1.17,0,0,.22-.11.25-.07C376.16,194.4,376.33,197.65,375.73,198.83Zm4.45-10.1c-.11.3-.94.49-1.38.66-4.3,1.63-5.66-3.71-6.9-7.17-.43-1.21-.93-2.37-1.25-3.59-1-3.7-2-8.11-2.95-11.7-.66-2.66-1.49-5.53-1.94-8,1.16,0,2.47.24,3.82.36.38,0,1.08-.06,1.25.08s.48,1.38.63,1.83c2.92,8.48,6,16.35,8.28,25.54A10.53,10.53,0,0,1,380.19,188.73Zm-.06-89.5a46,46,0,0,1-2,11.86,8.45,8.45,0,0,1-.63,1.61c-.46.32-2.54-.07-3.39-.07-3.09,0-5.55-.29-8.71-.29a5.55,5.55,0,0,1-1.7-.07,6.92,6.92,0,0,1-.56-1.83c-1.18-5,1.48-9.8,1.25-14.93,0-.19-.16-.65-.06-.88s.72-.33.94-.37a4.36,4.36,0,0,1,1.13,0c1.24.24,2.75,1.07,4.32,1.1,2.89.05,5.5-.7,7.77.22.56.22,1.64.93,1.76,1.39A11.42,11.42,0,0,1,380.12,99.23Zm-.76-34.17a9.52,9.52,0,0,1-.37-3.59,3.37,3.37,0,0,1,3.64-3.36c3.39-.11,6.72,1.6,10,.88v8.2c-3.51-.52-7.75.94-11-.37A3.91,3.91,0,0,1,379.37,65.06Zm3.2,75.89c-.57-.23-1.62-.8-1.76-1.24a12.8,12.8,0,0,1,.25-3.8c.55-3.47,1.7-6.31,2.45-9.44,3.48,1.1,7.8-1.78,10.91.29a3.74,3.74,0,0,1,1.51,1.61,10.7,10.7,0,0,1,.06,3.59c-.32,3.4-1.41,6-2,8.93C390.53,139.69,386.13,142.36,382.57,140.94Zm13,47.05c-.53,0-1.73.23-2.07,0a18.14,18.14,0,0,1-.88-3.15c-2-7.07-4.28-15.26-6.21-22a8.4,8.4,0,0,1,1.95.51c.55.16,1.56.3,1.81.59a18.33,18.33,0,0,1,.94,3c2.09,6.87,4.45,14.37,6.52,20.93A9.91,9.91,0,0,1,395.6,188Zm5.77-74.13c-.28.42-1.9.66-2.7.66-3,0-5.56-1.62-8.52-1.39-.24,0-1.06.37-1.26.29s-.68-1.69-.75-2.49c-.48-5.38,2.68-8.24,2.45-13.32a.57.57,0,0,1,0-.14s0-.07.06-.08a24.41,24.41,0,0,1,11.41,1.69c.46.21,1.21.39,1.31.59.29.5.15,3.29.06,4-.34,3.26-1.16,5.29-1.75,8.49A12,12,0,0,1,401.37,113.86Zm11.79,74.86c-.4-.11-.82-.24-1.32-.36s-1.09-.07-1.38-.29a12.55,12.55,0,0,1-1.07-2.64c-2.13-5.31-4.4-10-6.21-15.73a14.87,14.87,0,0,1-.81-2.86c.06-.22,1.54-1,1.82-.88s.92,2.3,1.13,2.86C407.79,175.43,410.76,182.53,413.16,188.73Zm8.78-126.31c-.14,1.1-.35,2.77-.5,3.95a8.62,8.62,0,0,1-.25,2c-.21.18-1.7-.13-2.07-.14l-4.2-.22a7.92,7.92,0,0,1-2.13-.07c-.31-.18-.53-1.5-.57-1.83A10.61,10.61,0,0,1,414,59.79a6.79,6.79,0,0,1,.75-1.32,7.9,7.9,0,0,1,1.06.07c.67,0,1.37-.1,1.88-.15,2-.16,4.34-.09,4.52,2A11.37,11.37,0,0,1,421.94,62.42Zm7-.14c-.23,2.16-.49,4.73-.69,6.51-4.7.5-2.5-5.61-2.38-9.15a13,13,0,0,1,1.75.22c.51.07,1.45,0,1.57.22S429,61.83,429,62.28Z"/><path class="cls-3" d="M868.22,227.2l.09,0-.06-.2A.94.94,0,0,1,868.22,227.2Z"/><path class="cls-3" d="M876.31,103.72c-12.54-.31-43.17-2-56.42-2-3,0-6.5,0-9.88.07a18.57,18.57,0,0,1-3.33.1,11.06,11.06,0,0,1-.38-1.67c-1.65-8.56.71-15.17.34-23.16,0-.58,0-1.67-.19-1.91-1.82-1.89-64.67-3.92-74.78-.75-.47.15-1.32-.29-1.63-.24-.56.09-1,1.45-1.08,2.47-1,14,.79,27.37-.11,41.36-.1,1.52.39,7.06.39,7.06l-.73,102.81s14.53.12,14.84.09c2.8-.25,18.19.09,20.95.14,26.22.51,65,2.19,71.46,1.66,6-.49,29.61-1.27,32.34-2.52l.16-.29h0l.24,0c1.1-10.35,2.41-63.7,4.59-73.27.74-3.24.81-6.68,1.43-10.32C876.77,130.1,876.37,118.71,876.31,103.72Zm-83,120.4c-.13.2-18.67,1.1-27.59.06-.66-6.64-1.15-18.29-1.82-25a12.65,12.65,0,0,0-.29-2.83c-.18-.26-1.5-.4-2.18-.52a17.85,17.85,0,0,0-2.5-.22c-3.46-.1-7.77.7-10.74.15-1.3-.24-2.83-1.09-4.51-1a2.54,2.54,0,0,0-2.21,1.28,7.47,7.47,0,0,0,0,1.8c.11,8.25,1.75,17.1,1,24.52a7.1,7.1,0,0,1-.18,1.57c-.18.27-1.43.53-1.94.7a12.41,12.41,0,0,1-4.66.84,6.6,6.6,0,0,1-2.37-.34,6.15,6.15,0,0,1-.18-1,14.34,14.34,0,0,0-.64-3c-.93-1.85.53-54.71,1.49-72.58,1.21-22.58-3.58-46-1.69-68a14.66,14.66,0,0,1,.18-2.15,12.31,12.31,0,0,1,2.6-.66c6.34-1.39,19.86-2.12,27.48-2,3.54,0,6.93-.07,10.3,0,10.2.32,19.73.83,30.27.82.31,25.69-3.58,49.07-7.72,71.67a16.2,16.2,0,0,0-.44,2.22c-.05,1.28.19,2.6.25,3.88a287.82,287.82,0,0,1-2.55,52.07C792.52,207.06,793.43,223.91,793.28,224.12Zm23.88-8.05c-.18.35-3.6.31-4.43.47a50.29,50.29,0,0,1-9,.47c-.85,0-4.08.22-4.69.14-.45-.06-1.79-.61-1.67-1.09.83-3.45-.09-5,.45-7.35a17.3,17.3,0,0,1,.06-1.77c.45-1,3.58-.7,5.45-.67,2.66,0,4.52.44,6.79.34.69,0,1.39-.25,2.13-.26a10.46,10.46,0,0,1,4.1.82c2.89,1.55,1,3.15.89,5.38C817.26,213.08,817.27,215.86,817.17,216.07Zm-4.35-86.73c.24-.79,1.53-1.12,2.59-1.09,1.49,0,2.56.35,3.83.3.38,0,.78-.18,1.19-.19a4.78,4.78,0,0,1,2.32.64c1.66,1.18-.39,3.5-.41,5.18,0,.4.28,1,.22,1.16s-1.21.61-1.68.72a21.37,21.37,0,0,1-5,.3c-.48,0-2.29.15-2.64.08a2.6,2.6,0,0,1-1-.83c-1.32-1.74.3-3.66.55-5.41A7.6,7.6,0,0,1,812.82,129.34Zm-1.42,19.82c0-1.43,1.87-1.67,3.61-1.63,1.37,0,2.69.22,4.06.24.4,0,.81-.06,1.22,0a3.79,3.79,0,0,1,2,.74c1.27,1.24-.16,3.15-.12,4.6,0,.23.12.47.12.69a2.25,2.25,0,0,1-.81,1.44,4.36,4.36,0,0,1-2.35.47c-2,0-4.24-.75-6.19-.68a12,12,0,0,1-1.2.15c-.16-.05-.43-.69-.54-1.14-.37-1.39.36-2.76.34-3.89C811.55,149.76,811.41,149.47,811.4,149.16Zm9.81,15.76c-.09.26-1.18.6-1.63.7a20.35,20.35,0,0,1-4.86.3c-.46,0-2.21.14-2.54.08a2.52,2.52,0,0,1-.94-.8c-1.28-1.68.28-3.55.53-5.24,0-.24,0-.6,0-.83.23-.76,1.49-1.08,2.5-1.06,1.44,0,2.47.35,3.7.29.38,0,.76-.17,1.15-.18a4.67,4.67,0,0,1,2.24.62c1.6,1.15-.38,3.39-.4,5C821,164.2,821.27,164.76,821.21,164.92Zm-.65,28.77c-.09.26-1.21.61-1.67.72a20.77,20.77,0,0,1-5,.31c-.47,0-2.27.14-2.62.08a2.56,2.56,0,0,1-1-.83c-1.32-1.73.29-3.64.55-5.38a7.51,7.51,0,0,1,0-.86c.23-.78,1.52-1.11,2.57-1.09,1.48,0,2.54.36,3.8.3.39,0,.78-.17,1.18-.18a4.81,4.81,0,0,1,2.31.64c1.65,1.18-.39,3.49-.41,5.16C820.34,192.94,820.62,193.53,820.56,193.69Zm1.11-11.49a2.29,2.29,0,0,1-.83,1.48,4.44,4.44,0,0,1-2.41.48c-2.08,0-4.36-.78-6.36-.7a11.91,11.91,0,0,1-1.24.15c-.17-.05-.44-.71-.56-1.18-.38-1.43.37-2.84.36-4,0-.35-.15-.64-.15-1,0-1.48,1.92-1.72,3.71-1.68,1.41,0,2.77.22,4.19.24.4,0,.84-.07,1.25,0a3.92,3.92,0,0,1,2,.76c1.31,1.28-.17,3.24-.12,4.74C821.56,181.73,821.68,182,821.67,182.2Zm1.87-59.12c0,.23.13.48.13.71a2.3,2.3,0,0,1-.84,1.48,4.39,4.39,0,0,1-2.42.49c-2.09,0-4.39-.78-6.4-.7a12.12,12.12,0,0,1-1.24.15c-.17-.05-.44-.71-.56-1.18-.38-1.44.37-2.85.36-4,0-.35-.15-.64-.15-1,0-1.49,1.93-1.73,3.74-1.69,1.41,0,2.78.22,4.2.25.41,0,.84-.07,1.26,0a3.87,3.87,0,0,1,2,.76C825,119.6,823.5,121.57,823.54,123.08Zm10.77,103.47-3.66,1.65-9.25-.31.7-21.2,3.64-1.29,5.15-.19L835,205Zm-8.07-76.78c0-1.43,1.86-1.67,3.6-1.64,1.37,0,2.7.22,4.07.24.4,0,.81-.06,1.22,0a3.79,3.79,0,0,1,2,.74c1.27,1.24-.16,3.15-.13,4.6,0,.23.13.47.13.69a2.24,2.24,0,0,1-.81,1.44,4.3,4.3,0,0,1-2.34.47c-2,0-4.24-.75-6.19-.68a10.93,10.93,0,0,1-1.21.15,2.54,2.54,0,0,1-.53-1.14c-.37-1.39.36-2.76.34-3.89C826.38,150.36,826.24,150.07,826.24,149.76Zm1.92-20c.24-.79,1.54-1.12,2.59-1.09,1.49,0,2.55.36,3.83.3.38,0,.77-.18,1.19-.18a4.76,4.76,0,0,1,2.32.64c1.66,1.19-.4,3.5-.41,5.18,0,.4.28,1,.22,1.15s-1.22.61-1.69.73a21.09,21.09,0,0,1-5,.3c-.48,0-2.29.14-2.64.08a2.58,2.58,0,0,1-1-.83c-1.33-1.74.29-3.67.55-5.41A5.9,5.9,0,0,1,828.16,129.81ZM836,165.37c-.08.26-1.18.59-1.63.7a20.59,20.59,0,0,1-4.86.3c-.46,0-2.21.13-2.55.07a2.52,2.52,0,0,1-.93-.81c-1.29-1.68.29-3.55.53-5.24a7,7,0,0,1,0-.83c.22-.76,1.49-1.08,2.5-1.05,1.44,0,2.46.35,3.7.29.37,0,.76-.17,1.15-.18a4.65,4.65,0,0,1,2.24.62c1.61,1.15-.38,3.38-.39,5C835.83,164.65,836.12,165.22,836,165.37Zm.4,27.62c0,.24.13.48.13.71a2.27,2.27,0,0,1-.84,1.48,4.39,4.39,0,0,1-2.41.48c-2.08,0-4.36-.77-6.36-.7a11,11,0,0,1-1.25.15c-.17-.06-.43-.71-.56-1.18-.37-1.43.38-2.83.37-4,0-.35-.16-.64-.16-1,0-1.48,1.92-1.72,3.71-1.68,1.41,0,2.77.22,4.19.24.41,0,.84-.07,1.25,0a3.91,3.91,0,0,1,2,.76C837.89,189.53,836.41,191.49,836.45,193Zm.36-10.88c0,.23.13.48.13.7a2.29,2.29,0,0,1-.84,1.49,4.45,4.45,0,0,1-2.41.48c-2.08,0-4.36-.77-6.36-.7a12.12,12.12,0,0,1-1.25.15c-.17-.06-.43-.71-.56-1.18-.37-1.43.38-2.84.37-4,0-.35-.16-.65-.15-1,0-1.48,1.92-1.72,3.71-1.68,1.41,0,2.77.22,4.19.24.41,0,.84-.07,1.25,0a3.9,3.9,0,0,1,2,.76C838.25,178.65,836.77,180.61,836.81,182.11Zm2.06-58.41c0,.23.13.48.13.71a2.27,2.27,0,0,1-.84,1.48,4.41,4.41,0,0,1-2.42.49c-2.09,0-4.38-.78-6.39-.7-.26,0-1.1.2-1.25.15a2.67,2.67,0,0,1-.56-1.19c-.37-1.43.37-2.85.37-4,0-.35-.16-.64-.15-1,0-1.48,1.93-1.72,3.73-1.68,1.42,0,2.78.22,4.2.25.41,0,.84-.07,1.26,0a4,4,0,0,1,2.05.76C840.32,120.22,838.83,122.2,838.88,123.7Zm3.18,26.58c0-1.43,1.87-1.67,3.61-1.64,1.37,0,2.69.22,4.06.24.4,0,.82-.06,1.23,0a3.75,3.75,0,0,1,2,.74c1.28,1.24-.16,3.15-.12,4.6,0,.23.13.47.12.69a2.23,2.23,0,0,1-.8,1.44,4.34,4.34,0,0,1-2.35.47c-2,0-4.24-.75-6.19-.68a11.14,11.14,0,0,1-1.2.15c-.17-.05-.42-.69-.54-1.14-.37-1.39.36-2.76.34-3.89C842.2,150.88,842.06,150.6,842.06,150.29Zm1.59-30.11c0-1.48,1.93-1.72,3.73-1.68,1.42,0,2.78.22,4.21.25.41,0,.84-.07,1.26,0a3.93,3.93,0,0,1,2.06.76c1.31,1.28-.16,3.25-.12,4.76,0,.23.13.48.13.71a2.29,2.29,0,0,1-.84,1.49,4.43,4.43,0,0,1-2.43.49c-2.09,0-4.38-.78-6.39-.7-.27,0-1.11.2-1.26.15a2.63,2.63,0,0,1-.55-1.19c-.38-1.43.37-2.85.36-4C843.79,120.81,843.65,120.51,843.65,120.18Zm10.14,16.15c-.09.27-1.22.61-1.68.73a21.19,21.19,0,0,1-5,.3c-.48,0-2.29.14-2.63.08a2.64,2.64,0,0,1-1-.83c-1.32-1.74.29-3.67.55-5.41,0-.24,0-.63,0-.86.24-.79,1.54-1.12,2.59-1.09,1.49,0,2.55.36,3.82.3.38,0,.78-.18,1.19-.18A4.79,4.79,0,0,1,854,130c1.65,1.19-.4,3.5-.42,5.18C853.57,135.58,853.85,136.17,853.8,136.33Zm-11.36,24.6a7.11,7.11,0,0,1,0-.83c.23-.76,1.48-1.08,2.5-1.05,1.44,0,2.47.35,3.7.29.37,0,.75-.17,1.15-.18a4.69,4.69,0,0,1,2.25.62c1.6,1.15-.38,3.38-.4,5,0,.39.28,1,.22,1.12s-1.18.59-1.64.7a20.52,20.52,0,0,1-4.86.3c-.45,0-2.21.13-2.54.07a2.46,2.46,0,0,1-.94-.81C840.62,164.49,842.19,162.62,842.44,160.93Zm-1.21,17.56c0-1.48,1.92-1.72,3.71-1.68,1.41,0,2.77.22,4.19.24.41,0,.84-.07,1.25,0a4,4,0,0,1,2.05.76c1.3,1.28-.17,3.24-.12,4.74,0,.23.12.48.12.71a2.33,2.33,0,0,1-.84,1.48,4.41,4.41,0,0,1-2.41.48c-2.08,0-4.36-.78-6.36-.7a12,12,0,0,1-1.25.15c-.16-.05-.44-.71-.55-1.18-.38-1.43.37-2.84.36-4C841.37,179.1,841.23,178.81,841.22,178.49ZM841.05,195c-1.31-1.73.3-3.64.55-5.38,0-.24,0-.62,0-.86.24-.78,1.53-1.11,2.58-1.09,1.48,0,2.54.36,3.8.3.38,0,.78-.17,1.19-.18a4.82,4.82,0,0,1,2.31.64c1.64,1.18-.4,3.49-.41,5.16,0,.4.28,1,.22,1.15s-1.21.61-1.67.72a20.74,20.74,0,0,1-5,.31c-.48,0-2.28.14-2.63.08A2.56,2.56,0,0,1,841.05,195Zm20.38,20.43c-.18.35-3.58,0-4.42.11a50.43,50.43,0,0,1-9,.47c-.85,0-4.08.22-4.69.15s-1.83-.63-1.68-1.09c.8-2.39.7-4.86,1.23-7.18.08-.33-.06-.83.08-1.14.45-1,2.78-1.5,4.65-1.48,2.65,0,4.52.43,6.8.33.68,0,1.4-.24,2.12-.26a10.57,10.57,0,0,1,4.1.82c2.88,1.55,1,3.86.87,6.09C861.51,212.77,861.54,215.2,861.43,215.41Zm11.05-106.59a8.75,8.75,0,0,1-2.41.24l-.5,0c-.54,0-5.63-.2-11.27-.49l-2.5-.13-4.81-.25-4.24-.22c-2.51-.13-4.25-.21-4.49-.2-3.16.1-4.79.23-6.38.34-1.19.09-2.36.16-4.12.21l-2,0c-4.23.06-8.37,0-12.4-.1s-8-.23-11.75-.33a2.49,2.49,0,0,0,0-.42c0-.45-.1-1-.13-1.44a3.63,3.63,0,0,1,0-.44v0a1,1,0,0,1,.22-.63l.07,0a.62.62,0,0,1,.23-.13,2,2,0,0,1,.49,0h.1c1,0,2,0,3.05,0l3.17.06c2,0,4.06,0,6.07-.07,5.29-.11,14.06.1,23.19.4l3.93.13c6.56.23,13.07.49,18.42.7l8.1.3C872.37,107.12,873,108.4,872.48,108.83Z"/><polygon class="cls-3" points="753.74 85.56 752.22 82.49 747.38 84.16 747.28 84.19 747.04 91.33 745.72 100.13 745.7 100.29 753.1 100.17 753.21 100.17 754.38 97.28 754.39 97.26 753.55 91.21 753.74 85.56"/><polygon class="cls-3" points="772.28 83.91 765.82 83.7 765.54 91.97 765.83 99.07 766.31 100.96 771.21 101.12 773.04 93.27 773.25 86.91 772.31 84.01 772.28 83.91"/><polygon class="cls-3" points="790.81 84.52 784.84 84.33 784.01 93.64 784.33 99.66 784.33 99.75 790.22 101.44 791.4 97.8 791.41 97.78 791.13 90.67 790.81 84.52"/><polygon class="cls-3" points="789.32 114.24 784.66 112.28 784.51 112.22 782.8 115.12 782.6 120.81 781.37 126.78 781.37 126.81 782.34 129.79 789.64 130.39 789.83 130.41 789.08 121.39 789.32 114.24"/><polygon class="cls-3" points="763.24 115.2 763.02 121.61 764.32 129.55 769.22 129.71 769.83 127.84 770.58 120.78 770.85 112.52 764.4 112.31 763.24 115.2"/><polygon class="cls-3" points="751.83 111.89 745.87 111.69 745.13 117.81 744.39 124.86 744.39 124.88 745.34 128.6 751.21 127.34 751.32 127.31 752.04 121.22 751.83 112.02 751.83 111.89"/><polygon class="cls-3" points="741.07 168.13 740.88 168.12 741.63 177.13 741.39 184.29 746.06 186.25 746.21 186.31 747.91 183.4 748.11 177.72 749.34 171.75 749.35 171.72 748.37 168.73 741.07 168.13"/><polygon class="cls-3" points="761.49 168.81 760.88 170.69 760.13 177.74 759.86 186 766.31 186.22 767.47 183.33 767.69 176.91 766.39 168.97 761.49 168.81"/><polygon class="cls-3" points="779.5 171.18 779.39 171.21 778.67 177.3 778.88 186.51 778.88 186.63 784.85 186.83 785.56 180.72 786.32 173.67 786.32 173.65 785.37 169.92 779.5 171.18"/><polygon class="cls-3" points="778.62 197.69 778.51 197.71 777.79 203.8 778 213.01 778 213.14 783.97 213.34 784.69 207.22 785.44 200.17 785.45 200.15 784.5 196.42 778.62 197.69"/><polygon class="cls-3" points="780.93 141.16 779.77 144.04 779.76 144.07 780.6 150.12 780.41 155.77 781.93 158.84 786.77 157.17 786.87 157.13 787.11 150 788.43 141.19 788.45 141.04 781.05 141.16 780.93 141.16"/><polygon class="cls-3" points="767.84 140.37 762.94 140.21 761.12 148.06 760.91 154.42 761.84 157.32 761.88 157.42 768.33 157.63 768.6 149.36 768.32 142.26 767.84 140.37"/><polygon class="cls-3" points="743.33 156.68 743.34 156.81 749.32 157 750.14 147.69 749.83 141.67 749.82 141.57 743.93 139.89 742.74 143.53 742.74 143.55 743.02 150.65 743.33 156.68"/><path class="cls-4" d="M733.84,211.66c-5.93-.21-6.16.15-12.17.31a10.26,10.26,0,0,1-2.62,0c0-.06-.15-2.79-.15-3.2,0-1.91,0-3.67.07-5.37.63,0,1.24-.11,1.88-.14L719,199.33c0-7.34-.09-13.14-.27-20.39-.07-2.63.68-5.32,1-8,0-.33,0-.47.09-.52a11,11,0,0,1,2.2,0,9.43,9.43,0,0,1,2.21,0c.22.06,0,0,.16.15s0,0,.15,0a23.54,23.54,0,0,0,2.73.11,22.46,22.46,0,0,0,5.44.07c.73-.12-1.12-5.52-1.32-6-4.25-10.13-13-20.14-13-20.19,0-.31-3.7-1.26-3.69-1.58.23-10.54-.72-18.42-.07-28.31.67-10.25-1.29-17,.76-27,.07-.34,1.51-.13,1.7-.77s5-1.33,5.17-2.32c.26-1.52.9-5.07,1.09-7.59.09-1.06.27-3.2-1.1-3.69a12.93,12.93,0,0,0-3.44-.47c-18.07-.75-57.8.19-61.5-.83s-5.35.44-4.62.14c-.54,3.89-1.07,11.48-1.58,15.27a1,1,0,0,1-.54.74,5.65,5.65,0,0,1-1.69.66c-.68.17-1.34.5-1.78.54a21.17,21.17,0,0,1-2.83-.05c-2.88-.09-5.8,0-8.76.1-10.62.48-20.51,1.65-31.25,1.83a15,15,0,0,0-2.92.1,18.08,18.08,0,0,1-2.55.72c-2.62.33-4.95-.35-7.34-.55a7.68,7.68,0,0,1-1.54-.08,3.07,3.07,0,0,1-.22-.83c-1-4.09-.66-8.69-.74-13.47a10.79,10.79,0,0,0-.09-2.14,8.76,8.76,0,0,0-1.86-.23c-.75-.1-1.24-.22-1.79-.28a19.65,19.65,0,0,0-3.95.22,98.81,98.81,0,0,1-13.86-.08,22.86,22.86,0,0,1-1.62-7.88,28.9,28.9,0,0,1-.18-4.7c.2-1.7-.26-2.91-1.7-3.27s-3.38.1-4.92.34c-.22,0-1.47.09-1.59.29a9.52,9.52,0,0,0,.14,1.88c.26,4.16.43,7.72.66,11.69,0,.22,0,.6.07,1l-.86-.06c-2.54-.16-5.19-.24-7.82-.23A69.44,69.44,0,0,1,548.51,61c0-.34-1-.89-1.45-1-1.79-.48-3.48.36-4.86.81a8.75,8.75,0,0,0-.92.28,5.11,5.11,0,0,0,0,.95c-.21,4.34.77,8,.67,12.09l-.5,0c-2.77.32-5.19.46-6.27,2.25-.75,1.25-.76,3.48-.88,5.45a7.87,7.87,0,0,1-.22,1.94c-.06.05-1-.15-1.54-.13-2.84.11-4.57,1.35-7.26,1.26-1.1,0-2.22.15-3.28.11-.91,0-1.71-2.19-2-3.1a5.27,5.27,0,0,1-.33-1.35c.05-.29.52-.72.7-1.06,1.06-1.89,1.14-4.77.95-7.8-.13-1.94-.64-3.91.74-4.51.88-.37,2.19,0,2.35-.88.09-.44-.35-.58-.47-.67-1.52-1.13-3-2.35-4.46-3.43s-2.46-1.95-3.85-2.86a7.57,7.57,0,0,0-1.45-.82c-.23,0-1,.72-1.32,1-2.77,2-5.21,3.88-8,5.78-.4.28-1.3.58-1.42.81a3.72,3.72,0,0,0-.07,1.46c.08.18.48.32.67.46s.56.41.62.46a5,5,0,0,1,.87,3c.14,3.06-.5,6.45.3,9a10.34,10.34,0,0,1,.59,1.35,4.71,4.71,0,0,1-.33,1.52,1.64,1.64,0,0,0,0,.41,2.86,2.86,0,0,1-.4.69,4.65,4.65,0,0,1-3.28,2.67c-1.68.4-4.56,0-6.82.17-.35,0-1.82.2-2,.45a5.94,5.94,0,0,0-.08,1.41c0,3.1.79,5.43.71,8.55a6.9,6.9,0,0,1,0,1.47,10.58,10.58,0,0,1-1.84.19l-5.69.51a65.36,65.36,0,0,1-7.73.55c-4.5,0-9.25.34-13.79.6a7.57,7.57,0,0,1-1.94,0l-.78,1.5,7.09,60.75c.06,0,3.58,21.22,2.75,22.94-.56,1.17-.87,3-1.51,4.28-.33.67-2.8,2.13-3.11,2.82-1.27,2.78-1,3.37-1,3.42,0,.44-2.24.4-2.63.47a9.8,9.8,0,0,0-1.83.67,3.29,3.29,0,0,0-1.77,2.8c-.24,1.31-.15,2.76-.33,4.5,0,.43.85,1,1.2,1.23a24.89,24.89,0,0,0,4.2,2.33c2.06.95,4,1.86,5.88,2.83.12.06.79-.49,1.12-.75,4.65-3.69,10.29-5.73,15.7-8.58a8.81,8.81,0,0,1,2.44-1.19,11.65,11.65,0,0,1,2.11.38c3.51.66,7,1.28,10.55,1.91a5.33,5.33,0,0,1,3.26,1.83c.69,1-.45,1.59-1.15,2-2,1-5.47,1.88-4.94,4.95a16.65,16.65,0,0,0,.69,1.76,17.28,17.28,0,0,0,.55,2.18c1.65,3.74,6.48,4.31,10.86,5.26a10.51,10.51,0,0,0,2.16.54c.44,0,1.35-1.07,1.87-1.5,4-3.22,7.54-6.24,11.43-9.44.37-.3,1.75-1.55,2.08-1.49,5,.8,10,2.3,15.23,2.93,1.8.22,3.62.26,5.45.59,13.8,2.48,28.4,3.77,43.62,4.75,7.54.48,15.16,1,22.84,1.28s15.6.84,23.4.7c3.89-.07,7.78-.49,11.68-.72l11.74-.73c15.57-.93,55.47-3,69.75-5.36A5.82,5.82,0,0,0,733.84,211.66ZM489.23,111.92a5.4,5.4,0,0,1,1.34.55,6.54,6.54,0,0,1,.28,1.36c.55,2.83,1,5.25,1.58,8.13a7.46,7.46,0,0,1,.22,1.35c-.18.63-2.5,1-3.26,1.1a24.15,24.15,0,0,0-2.76.52,5.62,5.62,0,0,1-.86.22,5.71,5.71,0,0,1-.69-1.35c-1.38-3.26-1.12-8.38-1.75-12.35A13.79,13.79,0,0,1,489.23,111.92Zm-6.19,55c0-1.18-.18-2.09.73-2.26a3.14,3.14,0,0,1,1.91.44,7.78,7.78,0,0,1,1.34.39,13,13,0,0,1,.33,1.83c.72,4.45.85,9.17,1.31,13.83-1-.28-2-.54-3.14-.83a4.47,4.47,0,0,1-1-.24,9,9,0,0,1-.39-1.72A52.61,52.61,0,0,1,483,166.94Zm4.55,17.27c-1.87,2.11-5.09-.12-6.89-.93C482.86,182,485.94,183.34,487.59,184.21Zm-4.87,6A9.31,9.31,0,0,1,475,188C478.33,188,480.15,189.48,482.71,190.2Zm-3.92-59.09c1.16,3.11,1,7.58,1.52,11.26-1.25-.52-2.44,0-3.58.59-.73.35-1.57.92-2.35.66-1-.35-.88-1.94-.82-3.12.13-2.53-.79-4.55-1.24-6.77a7.72,7.72,0,0,1-.25-2.4c.2-.66,1.77-.93,2.71-1a10.27,10.27,0,0,0,3.28-.42c.11-.06.07-.1.15-.06A4.7,4.7,0,0,1,478.79,131.11Zm-8.44-7.7a8.43,8.43,0,0,1,0-1.1c-.12-2.24-.68-4.37-.88-6.57A8.22,8.22,0,0,1,470.9,110a4.56,4.56,0,0,1,1.43-.08c.77,0,1.89.38,2.78.42.42,0,1.49-.21,1.64-.13a7.36,7.36,0,0,1,.38,1.46c.74,3.57.25,8.44,1,11.95-2.48-.16-3.84,1.37-6.08.84C471.52,124.37,470.48,123.86,470.35,123.42ZM469.7,194a22.16,22.16,0,0,1,8.8,2.15c-1.89,1.89-5.31.2-7.29-.77a8.89,8.89,0,0,1-1.55-.7C469.55,194.49,469.7,194.24,469.7,194Zm-4.87,6.14c-.29-.08-.81-.09-.88-.14s-.14-.63-.32-.83c4.29-.14,6.7,1.69,9.69,2.92a2.78,2.78,0,0,1-2.6,1.4C468.6,203.33,466.92,200.77,464.83,200.17ZM490.1,196a4.42,4.42,0,0,1-1.89,3.59,19.83,19.83,0,0,1-2.24.88,89.22,89.22,0,0,0-12.25,6.43c-.44.26-1.7,1.19-1.93,1.13s-.35-.69-.38-1a3.46,3.46,0,0,1,0-1.25c.12-.27.82-.55,1.21-.75,1.83-.93,5.26-1.57,4.85-4.47,0-.35-.45-1-.37-1.24s1-.45,1.37-.55c1.41-.33,3.56-.37,4-1.68.31-.88-.21-1.47-.2-2.2a2.13,2.13,0,0,1,.8-1.32c1.49-1.2,5.1-1.17,4.6-3.89-.07-.38-.41-1-.37-1.14s.85-.55,1.07-.7c.49-.33.77-.55,1.11-.8,0,0,0,0,.05,0C488.9,190,490.26,193,490.1,196Zm3.7-54a4.51,4.51,0,0,1-.28,1.26,13.94,13.94,0,0,1-1.65-.29,34.07,34.07,0,0,1-3.55-.31c-.45-.09-1.3-.21-1.44-.44a10.71,10.71,0,0,1-.18-1.51c-.38-3.28-.64-5.76-1-9.08a8.26,8.26,0,0,1-.18-1.46,6.42,6.42,0,0,1,1.83-.66,11.69,11.69,0,0,1,2.2-.35c1.47-.13,3.6.37,3.73,1.93a7.34,7.34,0,0,1-.19,1.15C492.72,135.64,494.31,138.74,493.79,142ZM712.91,76.3a5.45,5.45,0,0,1,.6-.95,7.73,7.73,0,0,1,.88,0c.54,0,1.11-.09,1.53-.13,1.65-.15,3.55-.13,3.72,1.4a7.55,7.55,0,0,1-.19,1.41c-.1.79-.25,2-.37,2.83a5.7,5.7,0,0,1-.17,1.42,7.11,7.11,0,0,1-1.7-.08l-3.43-.1a7,7,0,0,1-1.75,0c-.25-.12-.46-1.07-.48-1.3A6.87,6.87,0,0,1,712.91,76.3Zm-2.41,70.58c1.08,0,4.53-.77,4.88-.66.68.22,1.56,2.13,1.93,2.65,4.2,6.13,6.85,13.49,10.92,19.24-.66-.09-1.35-.2-2.19-.31a13.13,13.13,0,0,1-2.3-.23c-.55-.23-1.37-1.84-1.81-2.44-3.61-4.93-7.46-9.28-10.56-14.59-.3-.52-.59-3-.86-3.66-.33,0-.44,0-.16-.19C710.39,146.66,710.45,146.75,710.5,146.89Zm-8.17-70.4a4.54,4.54,0,0,1,.59-.95,7.71,7.71,0,0,1,.88,0c.54,0,1.12-.09,1.54-.13,1.64-.15,3.54-.13,3.71,1.4a6.51,6.51,0,0,1-.18,1.41c-.09.79-.25,2-.36,2.83a5.46,5.46,0,0,1-.18,1.42,7.08,7.08,0,0,1-1.69-.08l-3.44-.1a7,7,0,0,1-1.74,0c-.26-.12-.46-1.07-.49-1.3A6.92,6.92,0,0,1,702.33,76.48Zm2.33,25.81a4.8,4.8,0,0,1,1.15.25,9.34,9.34,0,0,1,.69,2.81,59.13,59.13,0,0,1,0,6.17,7.36,7.36,0,0,1,0,1.22c-.16.33-1.43.69-2.06.8-2.44.39-4.74-.44-7.08.09-.2,0-.79.39-1,.36s-.82-1.1-1-1.65c-1.24-3.71.84-6.11-.16-9.64a.89.89,0,0,1,0-.1s0,0,0-.06A22.84,22.84,0,0,1,704.66,102.3Zm-25.27,45.94c.64.13,2.06-.47,2.36-.24a12.67,12.67,0,0,1,1.13,2.5c2.51,5.71,5.41,13.44,7.89,18.89a15.64,15.64,0,0,1-2.39.1,34.39,34.39,0,0,1-4.5.08c-.29-.14-.81-2-1.06-2.62-2.39-5.88-5.17-12.69-7.49-18.25A18.21,18.21,0,0,1,679.39,148.24ZM676,130.38c-.11-2.5.36-4.63.45-6.92,3,.33,6-2.23,8.82-1.16a3.23,3.23,0,0,1,1.47.94,7.08,7.08,0,0,1,.62,2.51c.29,2.42-.18,4.35-.19,6.51-3-.4-6.07,2-9.16,1.47a3.24,3.24,0,0,1-1.61-.65A8,8,0,0,1,676,130.38Zm18.85-.32c-.11-2.5.36-4.63.45-6.92,3,.33,6-2.23,8.82-1.16a3.23,3.23,0,0,1,1.47.94,7.08,7.08,0,0,1,.62,2.51c.29,2.42-.18,4.35-.19,6.51-3-.4-6.07,2-9.16,1.47a3.24,3.24,0,0,1-1.61-.65A8,8,0,0,1,694.83,130.06Zm-7.28,17.78a18.07,18.07,0,0,1,4.05-.45c.65.13,2.06-.47,2.37-.24a12.43,12.43,0,0,1,1.13,2.5c2.52,5.71,5.42,13.44,7.9,18.89a15.58,15.58,0,0,1-2.39.1,34.38,34.38,0,0,1-4.5.08c-.3-.13-.82-2-1.07-2.62C692.65,160.21,689.86,153.4,687.55,147.84Zm.25-69c0-.7.45-2.12.89-2.31a10.44,10.44,0,0,1,1.63-.19c1.49-.25,3.22-.59,4.86-.71a10,10,0,0,1,1.84,0,4.74,4.74,0,0,1,1.54.29c.16.25-.15,1.19-.22,1.67-.23,1.48-.4,2.42-.65,4,0,.26,0,.7-.14.79a13.71,13.71,0,0,1-2.36,0l-4.61.08a8.84,8.84,0,0,1-2.3,0,8.25,8.25,0,0,1-.45-2.19A9.55,9.55,0,0,1,687.8,78.87Zm1.12,24a9.34,9.34,0,0,1,.7,2.81,61.6,61.6,0,0,1,0,6.17,7.31,7.31,0,0,1,0,1.22c-.16.33-1.42.69-2.06.8-2.43.39-4.73-.45-7.08.09-.2,0-.79.39-1,.36s-.82-1.1-1-1.65c-1.25-3.71.84-6.11-.16-9.64,0,0,0-.09,0-.1s0,0,0-.06a22.84,22.84,0,0,1,9.45-.24A4.74,4.74,0,0,1,688.91,102.83ZM673.74,78.17c.12-1.62,1.26-2.38,2.93-2.45,2.78-.12,5.52,1,8.17.49l.1,5.85c-2.88-.32-6.32.78-9-.11a3.15,3.15,0,0,1-1.86-1.22A5.91,5.91,0,0,1,673.74,78.17Zm-11.42-1.85a11.13,11.13,0,0,1,.13-1.26,6.77,6.77,0,0,1,2.26-.19c2,.11,3.68,1.06,5.8.9.28,0,.84-.25,1.07-.17.39.12.61,1.09.55,1.82-.11,1.36-1.21,2.58-.75,4.09-2.37,0-4.73.24-7.18.07a5.86,5.86,0,0,1-2.1-.28,2.92,2.92,0,0,1-.39-1.4A13.72,13.72,0,0,1,662.32,76.32Zm1.87,27.51c2.33-.33,4.31-1.17,6.29-.82a3.35,3.35,0,0,1,1.64.76,7.78,7.78,0,0,1,.26,1.61,28.37,28.37,0,0,1,.29,8.57,5.12,5.12,0,0,1-.25,1.21c-.31.28-2,.27-2.73.37-2.48.38-4.5.48-7.05.88a5.1,5.1,0,0,1-1.37.16,5.14,5.14,0,0,1-.75-1.21c-1.75-3.37-.38-7.06-1.38-10.63,0-.13-.23-.43-.19-.61s.53-.32.69-.37a4.16,4.16,0,0,1,.9-.15A22,22,0,0,0,664.19,103.83ZM671.32,134c-.08.39-.11.93-.28,1.06a12.13,12.13,0,0,1-2.77.48,55.18,55.18,0,0,1-6.42.25,6,6,0,0,1-1.24,0,5.66,5.66,0,0,1-.84-2.31c-.53-3.09.58-5.83.82-8.31,0-.28.72,0,1.21,0,3,.31,6.69-1.19,9.24-.21C670.6,127.66,671.89,131.28,671.32,134ZM655,73.89s.6.32.73.35a21.67,21.67,0,0,0,3.48,0c.41,2.54-.4,4.69-.49,7.07l-4.36.07C654.27,78.77,654.21,75.62,655,73.89Zm-72.39,107.2a6.36,6.36,0,0,1,0,1.93,7.17,7.17,0,0,1-1.33.28c-4.67.6-4.72-3.64-5.31-8-.2-1.4-.56-2.85-.8-4.69a7.73,7.73,0,0,1-.18-1.61c.08-.13.7-.1.82-.12,6.08-.71,4.28,7.1,6.13,11A8.76,8.76,0,0,1,582.66,181.09Zm-2.8-44.63c-.12,1.85-.29,3.86-.26,5.75A17.93,17.93,0,0,0,581,149a33,33,0,0,1-10.39,1.32c.48-4.23.15-9.32.07-14.16a9.78,9.78,0,0,1,0-2,8.71,8.71,0,0,1,2.25-.72,15.36,15.36,0,0,1,2.7-.46,9.36,9.36,0,0,1,3.44.36,3.13,3.13,0,0,1,.94,1.19A10.17,10.17,0,0,1,579.86,136.46Zm-11.17-35.72a19.06,19.06,0,0,1,.29-3.87A3.62,3.62,0,0,1,571.61,95a15.64,15.64,0,0,1,2.27.32,10.28,10.28,0,0,1,4.11,1c.43.25,1.24.85,1.31,1.29a7.69,7.69,0,0,1-.33,1.52,41.14,41.14,0,0,0,.1,12.23c-2.75.42-5.41.76-8.39,1.13-.3,0-1.07.23-1.23.12a7.11,7.11,0,0,1-.39-1.77A43.56,43.56,0,0,1,568.68,100.75Zm-6.87,67.32a1.91,1.91,0,0,1,.57,0,10.1,10.1,0,0,1,.14,1.82c.29,3.79.48,7.08.8,11a12.21,12.21,0,0,1,.13,1.78c-.09.24-1.08.6-1.52.7-2.08.51-3.91-.12-6.21.06a32.19,32.19,0,0,1,.32-8.32,44,44,0,0,1,1.62-7.24c.12-.33,2,0,2.42.06S561.18,168,561.82,168.07Zm-3.41-37.88c1.64,2.37.25,8,1,10.9.29,1.13,1.16,2,.83,3.18-.41,1.41-3,1.51-4.42,2-.37.11-1.07.48-1.43.55-2,.32-3.74-.73-3.94-2.13a10.17,10.17,0,0,1,.23-1.89c.18-3.6-1.1-6.48-.88-9.59a3.51,3.51,0,0,1,1.29-2.69,6.88,6.88,0,0,1,1.89-.61,16.46,16.46,0,0,1,2.76-.72A2.84,2.84,0,0,1,558.41,130.19ZM547.69,96.72c.08-.19,1-.5,1.43-.66,1.82-.72,4.69-2,6.85-1a3,3,0,0,1,1.68,2,8,8,0,0,1-.54,1.52c-1.17,3.87.3,8.89.78,12.73-2.84.11-5.08,1.31-8.09.77a3.48,3.48,0,0,1-1-.24,6.8,6.8,0,0,1-.14-1.93c-.28-3.91-.5-7.33-.81-11.32A9.7,9.7,0,0,1,547.69,96.72Zm-5,71.2c1.42-.24,2.71.62,4,.77-1,4.34-2.9,8.48-4.51,12.62a10.71,10.71,0,0,1-.69,1.74,10.92,10.92,0,0,1-2.31,0l-2.3,0c.87-4.44,3-8.27,4.24-12.56C541.43,169.4,541.47,168.12,542.69,167.92ZM514,83a2.46,2.46,0,0,1,1.91-2.59h0c.82.05,1.6,1.5,1.94,2.21a14.52,14.52,0,0,1,1.08,3.07,16.87,16.87,0,0,0-3.48.21,6.29,6.29,0,0,1-1,.07c-.14-.09-.17-.81-.22-1a5.56,5.56,0,0,1-.27-.94c0-.14.12,0,.15-.16C514.17,83.62,514,83.28,514,83Zm-5.54.2c.2-.32.43-.74.7-1.11s1-1.62,1.93-1.18c.73.34.51,3.2.53,4.12a10.54,10.54,0,0,1-.07,1.46c-.1.08-2,.11-2.46.15-.89.05-1.32,0-2.15.09A32.08,32.08,0,0,1,508.44,83.22Zm3.61,128.49c-2.55-.14-4.51-2-7-2.23,1.64-.27,2.62-2,4.29-1.28.37.16.55.66,1,.87a6.23,6.23,0,0,0,1.29.24c1.15.25,2.4.55,3.65.78A3.42,3.42,0,0,1,512.05,211.71Zm7.64-12.25a9.08,9.08,0,0,1,1.59.23c.16.13-.63.66-.86.8-2.71,1.69-7.76,1.28-10.51,0a5.1,5.1,0,0,1,3.65-1.79A20.3,20.3,0,0,1,519.69,199.46ZM514,191.35c-.06-.15.16-.24.25-.32.9-.73,2.28-1.43,3.29-2.09a6.63,6.63,0,0,1,2.36,0c1.55.08,2.78.13,4.37.19a9.57,9.57,0,0,1,2.15.07c.17.07.58.69.58.67,0,.29-.56.8-.65.9a4.67,4.67,0,0,1-3.05,1.62c-2.65.24-5-1-7.19-1.13A8.3,8.3,0,0,0,514,191.35Zm11.86,19.34a24.13,24.13,0,0,1-2.28,1.24,21.44,21.44,0,0,0-2.12,1.6c-1.77,1.34-3.38,2.57-5.27,4a5.65,5.65,0,0,1-1.07.75c-.15,0-.44-.83-.53-1.09a5.7,5.7,0,0,1-.28-1.3,7.08,7.08,0,0,1,0-2.24c.1-.3,1.19-.86,1.47-1a21.89,21.89,0,0,0,3-1.93c.36-.3,1.12-.87,1.21-1.23a16.11,16.11,0,0,0-.05-3.19l0-1.62a6.76,6.76,0,0,1,0-1.57c.12-.4,1.24-.95,1.47-1.07a18.24,18.24,0,0,0,3.2-1.78,3.13,3.13,0,0,0,1.1-1.38,16.67,16.67,0,0,0-.05-3c.05-1,.28-2.33,1.5-2.54.13,0,.68-.15.81,0a7.43,7.43,0,0,1,.08,1.36c.23,2.84,1,5.63,1.06,8.55C529.06,206.85,527.87,209.21,525.83,210.69Zm7.83-4a4.42,4.42,0,0,1-1.08-.45,14.5,14.5,0,0,1-.46-2.55c-1.9-12.55-3.32-25.07-5-38a8.38,8.38,0,0,0-.18-1.31c-.22-.49-1.62-.94-2.38-1.06-2.67-.4-5.14.68-7.84.7a13.78,13.78,0,0,0-1.54-.13,3,3,0,0,0-1.21,1.22,6.71,6.71,0,0,0,.13,1.46c.66,6.59,1.94,12.34,3,18.6a9.48,9.48,0,0,1,.23,1.3c-.08.27-1.21.9-1.62,1.17l-3.3,2.2c-.59.4-1.44.81-1.71,1.33-1.21,2.24,1.85,6.22-1.37,6.77-1.17-15.46-2.65-30.69-5.43-44.54-.41-2.08-.56-4.18-.82-6.31-2-15.81-4.72-30.85-5.63-47.88-.06-1.13,0-2.32-.11-3.45s-.81-2.43-.95-4a5.26,5.26,0,0,1,0-1.51,8.35,8.35,0,0,1,2-.35c4.69-.71,10.29-.45,15.37-.73,3.18-.18,6-.12,8.56-.72a46.64,46.64,0,0,1,11.77-1.14c-.93,21.58,1.92,42.65,3.48,63,.32,4.16.71,8.38.78,12.63a31.05,31.05,0,0,1-.26,6.17c-.82,4.42-2.71,8.06-4.47,11.84a9.23,9.23,0,0,0-1,2.26,3.53,3.53,0,0,0,2.37,3.25,15.07,15.07,0,0,0,3-.05c1,0,2.05.15,2.42.74a9.75,9.75,0,0,1,.45,2.51c.86,6,.7,13.28,1.86,18.78A33.54,33.54,0,0,1,533.66,206.69Zm14,2.64a7.75,7.75,0,0,1-1.59-.23,10.26,10.26,0,0,1-.76-2.34c-1.51-5.61-.88-13.69-2.17-19.45,4.37-.86,9.22.93,13.48-.28.92,7.91,1.78,15.88,2.66,23.84C555.47,210.33,551.65,209.85,547.65,209.33Zm23.55-20.46c-.66,1.87-3.16,1.62-5.71,1.87l-3.69.38c-.42,0-1.18.15-1.23.13-.26-.14-.4-1.52-.39-2,0-1.75,1-2.41,2.63-2.61,2.33-.3,5,.46,7.33.29.27,0,1-.2,1.07-.17C571.48,186.95,571.31,188.54,571.2,188.86Zm4.33,25.32c-1.73-8.12-.43-19.72-2.06-27.77,5.4.1,10.66.17,16.27.3.34,0,1,0,1,0a7.37,7.37,0,0,1,.18,1.72c.15,1.65.3,3.66.4,5.27.45,7.26-.12,15,.72,21.78C586.14,215.55,581.53,213.9,575.53,214.19Zm22.55-31c-.15.29-1.18.34-1.58.19-.8-.3-1-1.56-1.52-2.43-.2-.31-.71-.67-.8-.88-.16-.39-.16-1.14-.28-1.56A11.12,11.12,0,0,0,592,175c-1-1.44-2.51-3.19-2.4-5.76,0-.08,0-.06,0-.11a2.78,2.78,0,0,1,.77-.07,15.14,15.14,0,0,1,1.06,1.71c1.79,2.79,3.9,5,5.37,8.17a14.68,14.68,0,0,1,.75,2C597.76,181.37,598.26,182.88,598.08,183.23ZM628,214.13a11,11,0,0,1-.13,1.41c-.18.25-1.42.29-1.94.34-1.84.21-3.52.11-5.49.15a5,5,0,0,1-1.07,0,12.75,12.75,0,0,1-.36-3c-.62-7.18.52-13.13,1.32-19.35a5.72,5.72,0,0,1,.28-1.57,6.06,6.06,0,0,1,1.08.19c2.49.37,5.78.07,8.52.12C630.53,200.57,628.85,207,628,214.13Zm2.4-29.27c0,.53,0,1.09-.07,1.78a5.53,5.53,0,0,1-.23,1.62,16.37,16.37,0,0,1-2.62,0l-7.79.13a84.47,84.47,0,0,1,.79-11A27.21,27.21,0,0,1,621,174c.07-.3,2.16,0,2.56,0,2.52.17,4.91.32,7.39.45C630,177.06,630.32,181,630.39,184.86Zm9.42,29a7.17,7.17,0,0,1-.19,1.21c-.27.36-5,.43-5.51.46a23.91,23.91,0,0,1-2.46,0c1.56-12.24,2.13-26.28,3.5-39a8.25,8.25,0,0,1,.18-1.36,15,15,0,0,1,3.08-.05l3-.05C639.89,187.64,641.33,200.83,639.8,213.83Zm1-44.82a14.82,14.82,0,0,1-.23,2.2,14.13,14.13,0,0,1-2.66-.16c-9.74-.52-20.55-.36-30.66.1-3.73.17-7.39.44-11.08.5-.56,0-1.24-1-1.56-1.49-.83-1.2-1.29-2.5-2.12-3.73-.35-.52-1.2-1.15-1.31-1.6a22.65,22.65,0,0,1-.07-3.87c-.15-8.93-.76-17.61-1.26-26.21-.53-9.08-1-18.79-.84-28.41a10.58,10.58,0,0,1,.07-1.77s1.12-.14,1.58-.19c7-.66,15.19.18,21.57-1.09,1-.19,1.93-.48,2.87-.57a26.5,26.5,0,0,1,3.17.1,95.81,95.81,0,0,0,16.24-.8,47,47,0,0,0,5.83-1c.07,0,.1,0,.15-.06,2.43-.31,4.81.12,7.33-.12C645.07,123.19,643,145.94,640.79,169Zm5.64-70.78c-9.49,1.6-20.84,1.23-30.66,2.51-1.54.2-3.06.58-4.4.7-.85.08-1.76-.06-2.62-.06-6,0-12.27,1.12-18.3.78v-.48c-.27,0-.55,0-.82,0h-.15l-.12-7.3h.15c3.27-.22,6.6-.38,9.83-.53,7.05-.34,14.34-.69,21-1.66.25,0,.51-.1.75-.16a5.54,5.54,0,0,1,1.12-.19h.07a13.44,13.44,0,0,1,1.76.13c.44.05.89.11,1.32.13a94.63,94.63,0,0,0,10.48-.33c1.33-.1,2.69-.16,4-.22,1,0,2.12-.1,3.18-.16s2.93-.13,4.48-.08h.08c1.29,0,1.32.07,1.38.14s.07.15.09.65a2.41,2.41,0,0,1,.59.06,11.44,11.44,0,0,1,.08,1.56c.12,1.78,0,3.6-1.06,4.15A8.9,8.9,0,0,1,646.43,98.23Zm7.83,58.86a21.61,21.61,0,0,0-1.75-3.95c-.9-1.63-2.05-3.72-2.2-5.61.73.25,5.54-.42,6.32-.11.36.16,1.07,2.14,1.27,2.59,2.74,6.11,5.25,13.2,7.67,19.41-1.13-.13-6.22.55-6.94-.13-2.15-2.05-1.65-7.14-3.28-9.62a7.4,7.4,0,0,1-.74-1C654.4,158.21,654.42,157.6,654.26,157.09ZM668,211.55a8,8,0,0,1-.54,2c-.6.71-3.78,1-5.45.93-2.18,0-4-.18-6.32-.1,1.52-10.41,1.25-21.06,1.36-30.8a6.5,6.5,0,0,1,.32-2.1c.11-.08,2.58-.32,2.9-.36,3-.35,6.06-.59,8.94-.88a2.25,2.25,0,0,1,.71-.06c.21.06-.12.66-.12.94C670,190.84,670.63,201.41,668,211.55Zm3.77-35.49c-1.32,1.3-5.81,1-9.43,1.24a34,34,0,0,1-4.46.35c0-.2.28-.42.33-.77.15-.86-.38-2.31.61-2.65A27,27,0,0,1,662,174c3-.23,6.45-.49,9.14-.79,0,0,.25-.07.29,0A2.19,2.19,0,0,1,671.81,176.07Zm3.32-6.57c-3.5,1.23-4.68-2.57-5.73-5-.37-.86-.79-1.68-1.07-2.54-.84-2.63-1.77-5.76-2.55-8.32-.57-1.89-1.29-3.92-1.68-5.66.94,0,2,.14,3.13.2.31,0,.88-.06,1,0s.4,1,.54,1.29c2.49,6,5.07,11.59,7.07,18.12a6,6,0,0,1,.38,1.41C676.16,169.22,675.48,169.36,675.13,169.49Zm35.81,8.78c-.18,3.92.48,8.26-.44,11.77-8.19-.53-20.71,2.34-29.23,1.57-1.37-.12-3.89-.52-4.28-1-.74-.88-.19-3.47,0-4.36.71-4.06-.49-8.15.72-11.88,8.25.42,16.52-2.41,24.09-.8,1.33.28,7.91,0,8.43.65C711.06,175.3,711,177,710.94,178.27Zm1.87-9.2a34.53,34.53,0,0,1-4.51.08c-.29-.14-.81-2-1.06-2.62-2.39-5.88-5.17-12.69-7.48-18.25a18.09,18.09,0,0,1,4.05-.45c.65.13,2.06-.47,2.36-.24a12.39,12.39,0,0,1,1.14,2.5c2.51,5.71,5.4,13.44,7.89,18.89A15.64,15.64,0,0,1,712.81,169.07Z"/><path class="cls-4" d="M509.86,109.79c1.41-.15,1.63.63,2.38,1.11,1.43-3.49-.82-7.85-.26-11.81a7.89,7.89,0,0,0,.29-1.21,4.19,4.19,0,0,0-1-.71,7.73,7.73,0,0,0-4.12-1.08,6,6,0,0,0-1.79.39,5.51,5.51,0,0,0-.58,1.37c-1,3.22-.55,7.21-.19,10.87a10.39,10.39,0,0,0,.2,1.88c.15.23,1,.31,1.69.24C507.51,110.73,508.9,109.89,509.86,109.79Z"/><path class="cls-4" d="M524.74,110.42c2-.19,3.68-1.33,5.51-1.71-1.52-3.1-.56-8.8-1.44-12.57-1.57.3-3.17-.14-4.57-.08-1.13,0-2.43.55-2.64,1.56a16.1,16.1,0,0,0,0,2.93l.1,6a14.32,14.32,0,0,0,.05,3C522.06,110.26,523.73,110.52,524.74,110.42Z"/><path class="cls-4" d="M527.32,135c.55,0,2.67-.1,2.91-.47a7.24,7.24,0,0,0,0-1.72,78.6,78.6,0,0,0-.71-8.4,20.23,20.23,0,0,0-.36-3.28,3.78,3.78,0,0,0-.64-1.14,5.93,5.93,0,0,0-1-.08,20.6,20.6,0,0,0-3.14-.26c-1,.07-2,.36-2.08,1.39a6.47,6.47,0,0,0,.38,1.56c.77,3.25.27,7.56,1,10.8a5.94,5.94,0,0,0,.44,1.56,6.94,6.94,0,0,0,1.59,0C526.4,135,526.87,135,527.32,135Z"/><path class="cls-4" d="M514.55,134.79c1.28-3.15-.85-6.26-.88-9.65a14.17,14.17,0,0,0,.17-1.83,2.06,2.06,0,0,0-.47-.83,5.09,5.09,0,0,0-4-1.18,6,6,0,0,0-2.5.72,3.44,3.44,0,0,0-.19,1c-.72,4.57,1.27,8.07,1.54,12.15C510.42,135.14,512.59,133.72,514.55,134.79Z"/><path class="cls-4" d="M639,117.79c-1.33.17-2.9.25-4.2.39a58.29,58.29,0,0,0-9.15,1.67,6.41,6.41,0,0,0-1.69.5,11.29,11.29,0,0,0-.17,1.93,283.49,283.49,0,0,0-1.65,30c.69-.11,1.26.11,1.85,0a13.11,13.11,0,0,0,1.47-.81c3.06-1.23,6.86.27,10.36-.38.86-.16,2.75-.9,2.94-1.61a10.35,10.35,0,0,0,0-2c0-2,0-4.11.11-5.9.27-7,.73-13.85,1.19-20.72a8,8,0,0,0,.12-1.88C640.06,118.66,639.43,117.74,639,117.79ZM628.39,138c-1,2.72,1.1,8-.86,10a4.16,4.16,0,0,1-2.7.93c1.05-3.76-1.51-11.3,3.08-11.87a2.56,2.56,0,0,1,.87,0C628.91,137.17,628.36,138.07,628.39,138Zm.43-4.29a4.57,4.57,0,0,0-2.71.26l-.14-8.1a12.41,12.41,0,0,1,0-2.67c.21-.76,2.06-1.27,3-1.35.09,0,1-.11,1.18,0a10.39,10.39,0,0,1,.18,2C630.37,127.54,629.15,130.43,628.83,133.7ZM636,148.1l-3.53.06a5,5,0,0,1-1.13,0c-.34-.23-.21-2.49-.16-3,.11-1.15.25-1.89.42-2.83a39.4,39.4,0,0,0,.68-5.81c0-.27,1.83-.19,2.2-.19l2.09,0C636.45,140.09,636.16,144.18,636,148.1Zm.86-15.69c-.16.28-1.3.33-1.79.34-1.09,0-1.88-.05-2.87,0,.25-3.48.61-7.82.88-11.3,0-.27,1.59-.18,2-.19l1.9,0c-.05,2.95,0,6.6-.15,9.88A12.07,12.07,0,0,1,636.86,132.41Z"/><path class="cls-4" d="M614,130.19c.06-2.11.88-3.94.67-6-.1-.86-.56-2.26-1.18-2.49a7.51,7.51,0,0,0-1.68-.08c-3.62-.09-6.9-.18-10.31-.29a8.42,8.42,0,0,0-1.69-.08c-.09,0,0,.09,0,.16a11.09,11.09,0,0,0-.18,1.89c-.77,8.11-2.74,15.75-1.63,24.95.14,1.16.25,2.94,1.13,3.12A8.74,8.74,0,0,0,601,151c4.65-.69,9-1.94,14.13-1.44C614.89,143.37,613.82,136.87,614,130.19Zm-9.3,17.14c-1.61-.45-2.46.93-4.15.6.57-2.83-1.07-6.6.11-8.79.65-1.21,2.34-1.2,4.33-1.17C605,141.13,604.81,144.21,604.7,147.33Zm-2.46-11.93a3.43,3.43,0,0,1-.83-.14,19,19,0,0,1,.1-2.67c.08-2.45.08-4.22.14-6.8,0-.44,0-1.42.13-1.46,1.08-.32,2.7.18,3.79-.06C604.79,128.24,607.85,135.72,602.25,135.4Zm9.52,11.13c-.23.51-1.8.38-2.56.36a9.78,9.78,0,0,1-1,0,9.07,9.07,0,0,1-.15-2.56,57.1,57.1,0,0,1,.67-5.76,10.78,10.78,0,0,1,.14-1.15,15.55,15.55,0,0,1,2.35-.29s.2-.14.31-.07c.26.17.14,2,.14,2.3l.08,4.8A8.55,8.55,0,0,1,611.76,146.53Zm0-20.12c-.08,2.51-.52,5.32-.24,7.58-.93.1-1.81.24-2.71.36l-.17-9.82c.76,0,1.27-.75,2-.82.41,0,1,.14,1.09.4A9.16,9.16,0,0,1,611.74,126.41Z"/><path class="cls-4" d="M533.33,157.16a8.27,8.27,0,0,0-.38-1c-.81-2.72-.14-6.47-.88-9.29a4.29,4.29,0,0,0-.53-1.45,7.11,7.11,0,0,0-2.27-.38c-2.47-.1-3.47,1.11-3.59,3.2-.15,2.9,1,6.16.78,9,.65-.08,1,.07,1.38,0,.56-.15.69-.68,1.43-.65,1.21,0,1.71,1.86,2.85,1.78C532.47,158.35,533.32,157.65,533.33,157.16Z"/><path class="cls-4" d="M515.55,149a6.24,6.24,0,0,0-.48-1.3,6.6,6.6,0,0,0-2.37-.38,12.24,12.24,0,0,0-1.58,0,6.66,6.66,0,0,0-1.84.45,7.2,7.2,0,0,0,.13,1.46c.33,3.58.56,6.88.89,10.28,1.82-.17,3.78.2,5.74,0,.44-.05,1.53-.2,1.63-.39a13.78,13.78,0,0,0-.18-1.57A41.78,41.78,0,0,0,515.55,149Z"/><path class="cls-4" d="M68.34,36.61c.94-.3,3.48.06,4.61.14,9.62.62,17.95,2.77,27.69,3.3a11.06,11.06,0,0,1,2.25.07,2.51,2.51,0,0,1,1,1.14,10.74,10.74,0,0,1-.12,1.68c-.17,4.92,1.2,10.59.23,15.62a7,7,0,0,1-.46,1.82,11.79,11.79,0,0,1-2.31.27c-10.78,1.22-22.68.87-33.92.27a11.94,11.94,0,0,1-2.37-.14s-.11-1.42-.11-1.48c-.28-5.18-.6-11-.92-16.09-.11-1.66-.57-5.07.17-5.85.89-.94,3.25.05,4.16-.68a.35.35,0,0,1,.11-.07m4.9,5.45a8.11,8.11,0,0,0,0-1.55,5.46,5.46,0,0,0-1.73-.2,23.8,23.8,0,0,1-3.29.34,3.57,3.57,0,0,0-.87-.07c-1.75.43-1,3.63-1,5.52a6.91,6.91,0,0,0-.12,1.21c.11.16,1.05.16,1.44.13,1.85-.12,3.56-1.29,5.6-.81Zm4.27,4.58c.39.44,1.74.56,2.54.61,3.09.18,5.73-1.11,8.37-1,.72-7.53-8.42-2.1-11.43-5,0,1.59-.09,4.75.52,5.45m14.3-1c.07.1,1.37.42,1.68.54,1.61.64,3.37,1.6,5,1.68.72,0,2.21-.19,2.42-.61a3.27,3.27,0,0,0,0-1.42c-.46-4.1-6.28-1.92-9.06-3.16.16.58-.2,2.63,0,3m1,5c-.2,0-.11.09-.17.2-1,1.82.16,4.37.4,6.53,2.81-.17,6.05.15,8.36-.6-.17-1.48-.39-2.91-.52-4.44-3.22.89-5.5-1.7-8.07-1.69m-19,3.57a9.59,9.59,0,0,0-.17-2.56,10.53,10.53,0,0,0-2.31-.2c-.91-.08-2-.4-2.54-.13s-2,.48-2.19,1.08.13.93.17,1.48c.08,1.12-.07,1.9.34,2.42,1.39,1.75,4.73-.43,6.87.4,0-.87-.1-1.52-.17-2.49m3.29-3c.15,1.57-.59,6.17.92,6.53a7.8,7.8,0,0,0,1.39-.14c2.58-.08,4.46.7,7.09.67.69,0,2.42-.15,2.66-.54.36-.6,0-2.74-.06-3.3-.09-1.24-.21-2.13-.29-3.23Z"/><path class="cls-4" d="M181.37,96c-.84-.63-1.06-1.64-2.65-1.48-1.08.11-2.67,1.16-3.81,1.28-.74.08-1.74,0-1.9-.34a15.47,15.47,0,0,1-.17-2.43c-.35-4.72-.83-9.88.4-14a7.65,7.65,0,0,1,.69-1.75,5.84,5.84,0,0,1,2-.47,7.89,7.89,0,0,1,4.61,1.48,4.93,4.93,0,0,1,1.1.94,13.06,13.06,0,0,1-.35,1.55c-.7,5.09,1.74,10.75.06,15.22"/><path class="cls-4" d="M200.29,77.33c.91,4.88-.26,12.19,1.38,16.22-2.06.46-3.95,1.88-6.23,2.09-1.16.1-3-.27-3.29-1.28a21,21,0,0,1,0-3.84V82.84a23.23,23.23,0,0,1,0-3.77c.26-1.3,1.73-1.92,3-2,1.57,0,3.37.55,5.14.2"/><path class="cls-4" d="M68.49,75.16c6.7-1.16,14.56-.37,21.4.27a79.78,79.78,0,0,0,13.56.33,8.25,8.25,0,0,1,1.9-.13,3.72,3.72,0,0,1,.64,1.55,32.16,32.16,0,0,1,.11,4.71c0,.9.4,1.69.46,2.42,0,.43-.12.87-.11,1.28,0,3.51,1.79,6.21,1.38,10a5,5,0,0,1-1.27,2.83,9.06,9.06,0,0,1-1.9.54c-9,2.45-20.44,1.57-30.92,1a9.54,9.54,0,0,1-2.2-.14,13.63,13.63,0,0,1-.75-2.69c-1.62-6.5-2-13.87-2.31-21.95m9.75,8.55a18.75,18.75,0,0,0-.17-3.57,2.26,2.26,0,0,0-2.19-1.48c-1.52,0-2.71,1.07-4.33.94.06,1.29-.07,2.79,0,4a6.1,6.1,0,0,0,.35,2.08,4.82,4.82,0,0,0,1.32.74,9.15,9.15,0,0,0,5.19.74c0-1.18-.11-2.31-.18-3.5M91.33,82.3c-.08-.8-.3-2.39-.81-2.7a8.36,8.36,0,0,0-2.31-.13c-2.48-.12-5-.19-7.21-.27.11,2.6.6,5.32.81,8,3.21-.49,6.41-1,9.63-1.48a28.4,28.4,0,0,0-.11-3.43m3.46.2a12.77,12.77,0,0,0,0,2.76c.23.71,1.64,1.09,2.54,1.15s2.06-.2,3.35-.13c1.09.06,2.4.19,2.77-.67a4.83,4.83,0,0,0-.18-2.49,9.93,9.93,0,0,1-.4-2.29c0-.58.24-.87.17-1.21H94.85a25.38,25.38,0,0,0-.05,2.9m-5.89,7.75c-.78.13-.79.56-1.44.87-1.49.71-4.36,0-5.19,1.08-.49.64-.23,2.58.06,3.16a3.38,3.38,0,0,0,2,1.28c2.68.87,6-.07,8.88.27.38-4.34-.74-7.28-4.33-6.66m8.25,6.06c.84.45,2.08,0,3.17,0a9,9,0,0,0,1,.13c.29-.06.58-.42.87-.54,1-.42,2.25-.53,2.48-1.35.16-.58-.07-.94-.23-1.55s-.14-1-.29-1.35c-1.29-3.18-5.76.37-8.42-.87.43,2.21-.18,4.65,1.44,5.52M73.05,93.94c.11.45.46,2.8.75,3a7.11,7.11,0,0,0,1.38-.27c1.28-.25,1.52-.31,2.77-.54a6.13,6.13,0,0,0,1.39-.27,4.83,4.83,0,0,0,0-1.21,11.08,11.08,0,0,0,0-1.28c-.44-2.84-5.17-1.52-7-2.56.19,1,.42,1.81.75,3.16"/><path class="cls-4" d="M314.16,149.8c.18-17.34,1.13-33,2.42-48.86a24.32,24.32,0,0,1,.24-3.15c.14-.3,1.42-.59,1.9-.77A47.22,47.22,0,0,1,329,94.54c1.47-.18,3.23-.27,4.73-.51.52-.08,1.2,1.45,1.26,1.88a19.15,19.15,0,0,1-.17,3.07c-.65,11.2-1.29,22.33-1.73,33.77-.12,2.93-.23,6.32-.23,9.63a25,25,0,0,1,0,3.24c-.23,1.16-2.37,2.32-3.34,2.56-3.95,1-8.19-1.58-11.65.34-.51.28-1.15,1.11-1.67,1.28s-1.3-.16-2.08,0m15.17-50.14c-.47,0-2.22-.19-2.25.25-.37,5.66-.87,12.75-1.21,18.42a28,28,0,0,1,3.23,0c.55,0,1.83-.05,2-.51.08-.21,0-1.33,0-2,.17-5.34.24-11.31.35-16.12Zm-5.42,4.09a24.44,24.44,0,0,0-.17-3.33c-.16-.23-1.22-.09-1.33-.08-1.07.11-3.15.88-3.41,2.13a29.57,29.57,0,0,0,0,4.35c0,4.46,0,9.07,0,13.22.55-.6,2-.58,3.06-.34.42-5.33,1.85-10,1.84-15.95m4.44,20.38c-.42,0-2.46-.18-2.48.26a91,91,0,0,1-.87,9.46c-.2,1.52-.38,2.72-.52,4.61-.06.88-.26,4.55.11,4.94.13.14.92,0,1.27,0h4c.27-6.4.66-13.07.86-19.27h-2.37m-8,18.93c2.23-3.22,0-12,1.15-16.37,0,.13.6-1.32.46-1.45s-.76,0-1,0c-5.17.79-2.43,13.17-3.69,19.27a3.83,3.83,0,0,0,3.06-1.45"/><path class="cls-4" d="M306.38,145.28c-5.77-1-10.68,1-15.92,2-.69.13-1.69.58-2.19.43-1-.31-1.08-3.22-1.22-5.12-1.08-15,1.29-27.45,2.31-40.67a27.18,27.18,0,0,1,.23-3.07c0-.11,0-.22.06-.26a7,7,0,0,1,1.9.17c3.84.29,7.52.51,11.6.77a6.19,6.19,0,0,1,1.9.17c.69.4,1.19,2.67,1.27,4.09.2,3.39-.75,6.35-.86,9.81-.33,10.9.75,21.54.92,31.72M303,107.33a21.23,21.23,0,0,0,0-3.75,1.22,1.22,0,0,0-1.21-.68c-.81.09-1.39,1.31-2.25,1.28v16c1-.17,2-.39,3.05-.51-.28-3.7.28-8.27.41-12.37m-11.13-3.66a9.83,9.83,0,0,0-.18,2.38c-.12,4.2-.16,7.09-.29,11.09a41.84,41.84,0,0,0-.17,4.35,2.59,2.59,0,0,0,.92.26c6.29.68,3-11.61,4-18.08-1.23.37-3.05-.49-4.26,0m7.67,21.57c-.06.1-.09,1-.17,1.88-.34,3.58-.76,5.7-.87,9.38a22.08,22.08,0,0,0,.12,4.18,6.82,6.82,0,0,0,1.15,0c.86.05,2.61.32,2.88-.51a20,20,0,0,0,0-3.84v-7.84c0-.49.17-3.48-.11-3.76-.13-.12-.31.09-.35.09a12.07,12.07,0,0,0-2.65.42m-9.23,2.56c-1.37,3.54.39,9.73-.29,14.33,1.88.61,2.87-1.62,4.67-.85.17-5.09.4-10.1.52-15.26-2.24-.11-4.14-.17-4.9,1.79"/><path class="cls-4" d="M113,111.14c.59,7,2.14,12.92,2.65,20.33a43.81,43.81,0,0,1,0,5.59,8.67,8.67,0,0,1-.11,1.82c-.19.29-2.37.56-3.23.67-7.6,1-16.8-.66-23.48,1.35a13,13,0,0,1-1.44.54,25,25,0,0,1-4.84-.2,16,16,0,0,0-4.67.34,17.53,17.53,0,0,1-1.62.67,5.24,5.24,0,0,1-1.5-2,27.93,27.93,0,0,1,0-3.37c-.23-6.11-1.78-11.6-1.15-18.51a12.71,12.71,0,0,1,.4-2.83,7.29,7.29,0,0,1,1.85-.88c4.39-1.82,10.75-1.78,16.32-1.41a69.69,69.69,0,0,0,10,.13,24.62,24.62,0,0,0,8.42-2.15c.58-.27,1.56.05,2.43-.07m-5.89,5c-1.3.64-4,.15-4.78,1.21-.46.62-.17,1.45-.18,2.22,0,1.12-.34,2,.06,3,1.29,3.05,6.6,0,9.35,1.14-.26-2.52-.46-5.12-.75-7.61-1.23.26-2.78-.38-3.69.06m-26.24.6c-.3,0-.62.21-1,.2a10.84,10.84,0,0,0-1.09-.13c-2.75.19-2.94,3.87-2.54,7.07a11.7,11.7,0,0,0,.29,1.75c.2.2,1.41.11,1.9.06,1.93-.16,3.29-.89,5-1.14-.94-2.79.68-7.89-2.54-7.81m17.76,3.84c0-.85-.3-2.82-.81-3a9.72,9.72,0,0,0-1,.13c-3.54.17-6.34-1.19-9.75-.81-.31,0-.56,0-.64.06a9.48,9.48,0,0,0-.06,2.29,21,21,0,0,0,0,2.29c.09,1.12.38,3.28,1,3.63s2,.12,2.88.06c3.06-.19,5.63-.76,8.25-1.14a27.18,27.18,0,0,1,.06-3.5M105,136.31c1.29.64,2.57-.42,3.52-.74,1.65-.55,3.76-.16,4.56-1.27.59-.83-.05-3.73-.41-4.58-1.35-3.31-6.77-.69-9.75-1.55,1.26,2,.06,7.14,2.08,8.14m-11.25-6.93a25,25,0,0,1-4.9.34c-.21,0-1-.2-1.09-.07s0,1.85,0,1.89a24.44,24.44,0,0,0,.58,3.5,9.56,9.56,0,0,0,.29,1.75,5.84,5.84,0,0,0,1.44.14c3.33.15,5.91-.61,8.83-1a10.28,10.28,0,0,0,1.5-.13,7.74,7.74,0,0,0,.06-2.09,14.41,14.41,0,0,0-.23-2c-.16-.83-.67-2.86-1.27-3a.68.68,0,0,0-.35.07,37.47,37.47,0,0,0-4.85.54M77.16,134c.1.83.26,2.7.69,3.23a3.35,3.35,0,0,0,1.51.54c1.68.2,3-.48,4.38-.81a9.85,9.85,0,0,0,1.15-.2,7.38,7.38,0,0,0-.11-1.55c-.1-1.12-.2-2-.29-3a8,8,0,0,0-.11-1.55,2.54,2.54,0,0,0-1.79-.94c-2-.24-3.74,1.25-5.65.54a23.45,23.45,0,0,0,.23,3.77"/><path class="cls-4" d="M196.48,156c.32-3.69-.93-7.91-.69-11.65.17-2.68,1.32-4.22,4.09-4a7.12,7.12,0,0,1,2.54.54,6.13,6.13,0,0,1,.57,1.89c.78,3.65-.05,8.47.81,12a12.31,12.31,0,0,1,.4,1.28,2.23,2.23,0,0,1-1.38,1.55c-1.28.07-1.81-2.27-3.17-2.35-.83-.05-1,.63-1.61.81-.43.12-.82-.08-1.56,0"/><path class="cls-4" d="M178.25,158.58c-.31-4.39-.51-8.64-.81-13.26a10.5,10.5,0,0,1-.12-1.89,6.79,6.79,0,0,1,2.08-.54,12.1,12.1,0,0,1,1.79,0,6.55,6.55,0,0,1,2.66.54,8.42,8.42,0,0,1,.52,1.68,61.6,61.6,0,0,1,2,11c0,.5.23,1.91.18,2s-1.35.41-1.85.47c-2.21.26-4.41-.25-6.46-.07"/><path class="cls-4" d="M193.94,124.14c.32-3.69-.93-7.91-.69-11.65.17-2.68,1.32-4.22,4.09-4a7.12,7.12,0,0,1,2.54.54,6.13,6.13,0,0,1,.57,1.89c.78,3.65-.05,8.47.81,12a12.31,12.31,0,0,1,.4,1.28,2.23,2.23,0,0,1-1.38,1.55c-1.28.07-1.81-2.27-3.17-2.35-.83-.05-1,.63-1.61.81-.43.12-.82-.08-1.56,0"/><path class="cls-4" d="M175.71,126.7c-.31-4.39-.51-8.64-.81-13.26a10.5,10.5,0,0,1-.12-1.89,6.79,6.79,0,0,1,2.08-.54,12.1,12.1,0,0,1,1.79,0,6.55,6.55,0,0,1,2.66.54,8.42,8.42,0,0,1,.52,1.68,61.6,61.6,0,0,1,2,11c0,.5.23,1.91.18,2s-1.35.41-1.85.47c-2.21.26-4.41-.25-6.46-.07"/><path class="cls-3" d="M1415.54,257.79l1.16-154s.73-8.66.64-11c-.83-21.94,1.72-42.77.72-64.76-.07-1.59-.61-3.74-1.3-3.9-.39-.09-1.46.57-2,.33-12.52-5.29-90.85-4.13-93.16-1.22-.28.36-.23,2.08-.28,3-.63,12.51,2.17,22.94-.07,36.28a21.33,21.33,0,0,1-.49,2.6c-.37.29-3.11-.2-4.15-.26-4.21-.27-8.55-.32-12.3-.43-16.5-.43-54.69,1.19-70.31,1.29-.38,23.46-1.12,41.28,1.41,62.17.7,5.72.71,11.1,1.57,16.2,2.52,15.05,3,98.62,4.21,114.86l.27,0s0,.06,0,.09l0,.23.06,0a4.37,4.37,0,0,0,.75,1.77,6.49,6.49,0,0,1,.66,1.26h0s0,0,0,0a4.24,4.24,0,0,0-.31-.67l-.92-2.2c3.73,2,32.75,4,40.22,4.94,8,1,56.36-.35,89-.31,3.43,0,22.61,0,26.09.45.26,0,9.12.18,14.48.27l0,.07c12.17.27,23.37,3.87,35.66,2.8C1436.47,262.7,1423.27,265.6,1415.54,257.79ZM1314.6,191a4.33,4.33,0,0,1-.72,1.82,11.47,11.47,0,0,1-1.54-.27c-2.49-.18-5.35.89-7.94.89a4.63,4.63,0,0,1-3-.83,3.92,3.92,0,0,1-1-2.35c0-.36.16-.73.17-1.1.08-2.34-1.72-5.46-.05-7.42a4.3,4.3,0,0,1,2.56-1.12c.52,0,1.05.1,1.56.1,1.77,0,3.47-.24,5.22-.25,2.23,0,4.62.44,4.59,2.75,0,.51-.2,1-.21,1.51C1314.19,186.51,1315.1,188.74,1314.6,191Zm-14.27-53.57a4.13,4.13,0,0,1,2.49-1.09c.5,0,1,.09,1.52.1,1.71,0,3.36-.24,5.06-.24,2.17,0,4.49.43,4.47,2.67,0,.49-.19.93-.2,1.46,0,1.77.84,3.94.35,6.1a4.15,4.15,0,0,1-.69,1.77,11.35,11.35,0,0,1-1.5-.27c-2.42-.17-5.2.86-7.71.87a4.49,4.49,0,0,1-2.92-.81,3.85,3.85,0,0,1-1-2.28c0-.35.16-.71.17-1.07C1300.46,142.33,1298.7,139.3,1300.33,137.4Zm-.17-30.49a5,5,0,0,1,2.91-.93c.51,0,1,.29,1.48.33,1.58.14,2.91-.32,4.77-.34,1.31,0,2.92.55,3.2,1.79.08.38,0,1,0,1.35.28,2.74,2.26,5.81.57,8.49-.29.47-.9,1.2-1.22,1.27s-2.68-.2-3.28-.21a21.05,21.05,0,0,1-6.25-.64c-.58-.19-2-.77-2.09-1.19-.06-.26.31-1.17.3-1.8C1300.59,112.4,1298.09,108.71,1300.16,106.9Zm-.93-16.75a4.32,4.32,0,0,1,2.58-1.13c.53,0,1.06.1,1.58.1,1.77,0,3.47-.25,5.24-.25,2.24,0,4.65.44,4.61,2.76,0,.51-.2,1-.21,1.51,0,1.83.87,4.06.37,6.3a4.41,4.41,0,0,1-.72,1.83,11,11,0,0,1-1.55-.28c-2.51-.17-5.38.9-8,.9a4.63,4.63,0,0,1-3-.84,4,4,0,0,1-1-2.35c0-.36.16-.74.17-1.11C1299.37,95.26,1297.57,92.12,1299.24,90.15Zm2,63.44a4.82,4.82,0,0,1,2.81-.9c.49,0,1,.28,1.43.32,1.53.13,2.81-.31,4.61-.33,1.26,0,2.82.53,3.09,1.73.08.36,0,.94,0,1.31.27,2.65,2.19,5.62.55,8.21-.28.45-.86,1.16-1.18,1.23s-2.59-.19-3.16-.2a20.44,20.44,0,0,1-6.05-.61c-.56-.19-1.91-.75-2-1.15-.07-.25.29-1.13.3-1.74C1301.63,158.91,1299.21,155.34,1301.23,153.59ZM1250.59,74l-1.31,0-2.37.08-1,0c-1.29,0-2.3.06-2.94.06h-.08l-.59,0-.94-.08a8.94,8.94,0,0,1-2.6-.38l-.08,0a1.58,1.58,0,0,1-.25-1.21c0-.51.15-1.1.21-1.66h0a4,4,0,0,0,0-1c2.19,0,5-.09,8.14-.16l5.87-.14h.48l8.85-.21,7.24-.15,4.9-.09c3.27-.06,6.52-.1,9.66-.14,8.65-.09,16.51-.06,21.68.21l2.51.12c1.68.08,3.36.16,5,.17,1.28,0,2.63,0,3.95,0l1.95,0c.64,0,1.25,0,1.85.09a3.55,3.55,0,0,1,.75.05c.93.35.62,2,.48,3.55,0,.25,0,.5,0,.73a4.82,4.82,0,0,0,0,.66c-9.46.06-19.56.34-30.09-.11-2.78-.12-4.55-.26-6.1-.43l-.76-.08-1.49-.17-.77-.09-1.72-.18c-1.25-.12-2.74-.25-4.7-.38h-.56c-.88,0-2.69.08-5,.17l-2.51.1C1262.87,73.58,1256,73.85,1250.59,74ZM1263.12,199a5,5,0,0,1,2.89-.92c.5,0,1,.29,1.47.33,1.57.14,2.89-.32,4.74-.34,1.3,0,2.91.55,3.19,1.78.08.38,0,1,0,1.34.28,2.73,2.25,5.79.57,8.45-.3.47-.89,1.2-1.21,1.26s-2.67-.19-3.26-.21a21,21,0,0,1-6.23-.63c-.57-.19-2-.77-2.07-1.18-.07-.25.3-1.16.3-1.79C1263.53,204.45,1261,200.79,1263.12,199Zm13.16-7.41a4.34,4.34,0,0,1-.71,1.82,11.72,11.72,0,0,1-1.55-.28c-2.5-.17-5.35.89-7.94.89a4.63,4.63,0,0,1-3-.83,3.92,3.92,0,0,1-1-2.35c0-.36.16-.73.17-1.1.08-2.34-1.72-5.46-.05-7.42a4.32,4.32,0,0,1,2.56-1.12c.52,0,1.05.1,1.56.1,1.76,0,3.47-.25,5.22-.25,2.23,0,4.62.44,4.59,2.75,0,.5-.2,1-.22,1.51C1275.87,187.12,1276.78,189.35,1276.28,191.58Zm-14.15-53.4a4.14,4.14,0,0,1,2.49-1.09c.5,0,1,.09,1.52.1,1.71,0,3.36-.24,5.06-.24,2.17,0,4.49.43,4.46,2.67,0,.49-.19.93-.2,1.46,0,1.77.84,3.93.36,6.1a4.12,4.12,0,0,1-.7,1.77,11.37,11.37,0,0,1-1.5-.27c-2.42-.17-5.2.86-7.71.87a4.49,4.49,0,0,1-2.92-.81,3.85,3.85,0,0,1-1-2.28c0-.35.16-.71.17-1.07C1262.26,143.11,1260.51,140.08,1262.13,138.18Zm-.89-30.71a5,5,0,0,1,2.9-.93c.51,0,1,.29,1.49.33,1.58.13,2.91-.32,4.76-.34,1.3,0,2.92.55,3.19,1.79.08.38,0,1,0,1.35.28,2.74,2.26,5.81.58,8.49-.29.47-.9,1.2-1.21,1.27s-2.68-.2-3.28-.21a20.92,20.92,0,0,1-6.25-.63c-.58-.19-2-.77-2.09-1.19-.06-.26.31-1.17.31-1.8C1261.65,113,1259.15,109.27,1261.23,107.46ZM1260.31,91a4.3,4.3,0,0,1,2.58-1.13c.52,0,1.05.1,1.57.1,1.77,0,3.48-.25,5.24-.25,2.24,0,4.64.44,4.61,2.76,0,.51-.19,1-.21,1.51,0,1.83.87,4.07.37,6.3a4.35,4.35,0,0,1-.72,1.83,11.35,11.35,0,0,1-1.55-.27c-2.5-.18-5.38.89-8,.9a4.62,4.62,0,0,1-3-.84,4,4,0,0,1-1-2.36c0-.36.16-.73.17-1.1C1260.44,96.06,1258.64,92.92,1260.31,91Zm34,9a4.44,4.44,0,0,1-.72,1.83,11.38,11.38,0,0,1-1.55-.27c-2.5-.18-5.38.89-8,.9a4.62,4.62,0,0,1-3-.84,4,4,0,0,1-1-2.36c0-.36.16-.74.17-1.1.08-2.36-1.72-5.49-.05-7.46a4.28,4.28,0,0,1,2.57-1.13c.53,0,1.06.1,1.57.1,1.77,0,3.48-.25,5.24-.25,2.25,0,4.65.44,4.61,2.76,0,.51-.2,1-.21,1.51C1293.87,95.46,1294.78,97.7,1294.29,99.94ZM1263,154.14a4.87,4.87,0,0,1,2.8-.9c.49,0,1,.28,1.43.32,1.54.13,2.81-.31,4.61-.33,1.27,0,2.83.53,3.09,1.73.09.36,0,.94,0,1.31.27,2.65,2.18,5.62.55,8.21-.28.46-.86,1.16-1.18,1.23s-2.59-.19-3.17-.2a20.44,20.44,0,0,1-6-.62c-.56-.19-1.91-.74-2-1.15-.06-.25.29-1.13.3-1.74C1263.43,159.46,1261,155.89,1263,154.14Zm18.12-37.07c-.06-.26.31-1.17.31-1.8,0-2.63-2.49-6.32-.41-8.13a5,5,0,0,1,2.9-.93c.51,0,1,.29,1.48.33,1.59.13,2.91-.32,4.77-.34,1.31,0,2.92.55,3.2,1.79.09.37,0,1,0,1.35.28,2.74,2.26,5.81.58,8.49-.29.47-.9,1.2-1.22,1.27s-2.68-.2-3.28-.21a21.06,21.06,0,0,1-6.25-.63C1282.66,118.07,1281.26,117.49,1281.15,117.08Zm-39.61,142.4a2.08,2.08,0,0,1,0-.27h0A2.1,2.1,0,0,0,1241.53,259.48Zm31.14-16.8c-.76.11-4.78-.34-5.84-.37-3.93-.13-7.69-.1-11.15-1-1-.27-5.29.23-5.5-.32-.13-.34,0-4.14-.07-5-.09-3.49-2.42-7.17,1.21-9.5a10.9,10.9,0,0,1,5.13-1.15c.9.05,1.79.41,2.64.48,2.83.23,5.16-.34,8.47-.31,2.33,0,5.22.81,5.76,2.47a13.11,13.11,0,0,1,.08,1.79c.62,3.64.43,7.5,1.38,11.27C1275,241.76,1273.25,242.6,1272.68,242.69Zm9.16-104.83a4.16,4.16,0,0,1,2.49-1.09c.5,0,1,.09,1.52.1,1.71,0,3.36-.24,5.07-.24,2.17,0,4.48.43,4.46,2.67,0,.49-.19.94-.2,1.46,0,1.77.84,3.94.36,6.1a4.18,4.18,0,0,1-.7,1.77,11.49,11.49,0,0,1-1.5-.26c-2.42-.17-5.2.86-7.71.87a4.49,4.49,0,0,1-2.91-.81,3.77,3.77,0,0,1-1-2.28c0-.35.15-.71.16-1.07C1282,142.8,1280.22,139.76,1281.84,137.86Zm.9,16a4.87,4.87,0,0,1,2.81-.9c.49,0,1,.28,1.43.32,1.54.13,2.81-.31,4.62-.33,1.26,0,2.82.53,3.09,1.73a12.08,12.08,0,0,1,0,1.31c.27,2.65,2.19,5.62.56,8.21-.28.46-.86,1.17-1.18,1.23s-2.59-.19-3.17-.2a20.36,20.36,0,0,1-6.05-.61c-.55-.19-1.91-.75-2-1.15-.07-.25.3-1.13.3-1.74C1283.14,159.14,1280.72,155.58,1282.73,153.83Zm-1.26,28.36a4.32,4.32,0,0,1,2.57-1.12c.51,0,1.05.1,1.56.1,1.76,0,3.46-.25,5.22-.25,2.23,0,4.62.44,4.59,2.74,0,.51-.2,1-.21,1.51,0,1.82.87,4,.37,6.28a4.27,4.27,0,0,1-.72,1.82,11,11,0,0,1-1.54-.27c-2.5-.17-5.36.89-7.95.89a4.62,4.62,0,0,1-3-.83,3.92,3.92,0,0,1-1-2.34c0-.36.16-.73.17-1.1C1281.62,187.27,1279.81,184.14,1281.48,182.19Zm.11,25.57c0-.36.15-.73.17-1.1.09-2.34-1.71-5.47-.05-7.42a4.3,4.3,0,0,1,2.56-1.12c.52,0,1,.1,1.56.1,1.76,0,3.46-.25,5.21-.25,2.23,0,4.62.44,4.59,2.75,0,.51-.19,1-.21,1.51,0,1.82.86,4,.37,6.28a4.37,4.37,0,0,1-.71,1.82,11.09,11.09,0,0,1-1.55-.27c-2.5-.17-5.35.89-7.94.89a4.64,4.64,0,0,1-3-.83A3.94,3.94,0,0,1,1281.59,207.76Zm6.67,54.19-4.52-2.7-.44-33.77,5.13.47,6.41.45,4.51,2.14.44,33.22Zm13.28-53.69c-.07-.25.3-1.16.3-1.79,0-2.63-2.48-6.3-.4-8.09a5,5,0,0,1,2.89-.93c.51,0,1,.29,1.47.33,1.58.14,2.9-.32,4.75-.34,1.3,0,2.9.55,3.18,1.78.08.37,0,1,0,1.34.28,2.73,2.25,5.78.56,8.45-.29.47-.88,1.2-1.2,1.27s-2.67-.19-3.26-.21a21,21,0,0,1-6.23-.64C1303,209.25,1301.64,208.68,1301.53,208.26Zm26.27,37.42c-.75.11-4.78-.34-5.84-.37-3.92-.13-7.68-.1-11.15-1-1-.27-5.29-.32-5.51-.88-.12-.34,0-4.69-.07-5.53-.09-3.49-2.41-6.06,1.22-8.39a10.77,10.77,0,0,1,5.12-1.15c.9.05,1.79.41,2.65.48,2.82.23,5.16-.34,8.47-.31,2.33,0,6.24-.42,6.77,1.23.17.5,0,2.26,0,2.77.62,3.64-.56,6.1.41,11.53C1330,244.77,1328.37,245.6,1327.8,245.68Zm82.93,8.42a29,29,0,0,0-.86,4.67,10.09,10.09,0,0,1-.23,1.62c-.27.36-2.11.45-3,.45a12.74,12.74,0,0,1-5.78-1.46c-.63-.27-2.17-.73-2.39-1.15a14.29,14.29,0,0,1-.19-2.47c-.85-11.63,1.39-25.44,1.68-38.36a13.18,13.18,0,0,0,0-2.82,3.17,3.17,0,0,0-2.72-2.08c-2.08-.24-4,1-5.63,1.37-3.71.77-9.06-.64-13.37-.59a19.26,19.26,0,0,0-3.11.25c-.86.15-2.49.34-2.73.74s-.34,3.65-.42,4.43c-1,10.45-1.82,28.67-2.79,39.05-11.12,1.34-34.19-.67-34.34-1s1.3-26.69,1.22-27.64c-2.31-25.8-3.62-52.48-2.1-81.61.1-2,.43-4.07.4-6.07a32.73,32.73,0,0,0-.5-3.49c-4.69-35.51-9-72.24-8.13-112.46,13.12.35,25-.14,37.71-.31,4.19-.05,8.42.22,12.82.27,9.48.13,26.3,1.71,34.17,4.08.68.2,3,.76,3.23,1.12a28.07,28.07,0,0,1,.18,3.38c1.91,34.44-4.55,71-3.51,106.36C1411.21,168.43,1411.93,251.24,1410.73,254.1Z"/><polygon class="cls-3" points="1396.61 64.31 1395.14 50.39 1394.99 39.31 1394.99 39.26 1389.13 36.55 1388.99 36.49 1387.08 41.06 1387.08 41.08 1387.2 49.94 1386.04 59.37 1386.04 59.39 1387.38 63.81 1387.4 63.88 1396.47 64.3 1396.61 64.31"/><polygon class="cls-3" points="1364.97 64.72 1364.99 64.81 1370.87 64.71 1370.97 64.71 1371.59 61.84 1372.09 50.75 1371.92 38.02 1371.92 37.92 1364.1 38.04 1364 38.04 1362.75 42.58 1362.89 52.56 1364.97 64.72"/><polygon class="cls-3" points="1348.53 62.26 1349.05 52.78 1348.22 38.3 1341.04 38.41 1340.93 38.41 1340.4 47.92 1339.91 59.02 1341.3 64.67 1348.46 62.29 1348.53 62.26"/><polygon class="cls-3" points="1341.21 110.04 1350.33 109.33 1350.42 109.33 1351.65 104.81 1351.66 104.8 1350.25 95.4 1350.14 86.54 1348.09 81.99 1342.23 84.92 1342.17 84.95 1342.32 96.07 1341.22 109.93 1341.21 110.04"/><polygon class="cls-3" points="1374.62 97.23 1374.48 87.24 1373.15 82.83 1373.12 82.75 1365.33 82.88 1365.21 82.88 1365.37 95.71 1366.16 106.78 1366.84 109.54 1366.86 109.62 1372.85 109.53 1374.62 97.23"/><polygon class="cls-3" points="1396.52 108.64 1397.75 102.94 1396.97 91.88 1396.2 82.39 1389.02 82.5 1388.9 82.5 1388.46 97 1389.22 106.41 1389.22 106.47 1396.38 108.59 1396.52 108.64"/><polygon class="cls-3" points="1401.21 171.01 1401.22 170.9 1392.1 171.6 1392.01 171.61 1390.78 176.13 1390.77 176.14 1392.18 185.54 1392.3 194.39 1394.34 198.95 1400.2 196.02 1400.26 195.99 1400.11 184.87 1401.21 171.01"/><polygon class="cls-3" points="1376.27 174.16 1375.57 171.32 1369.58 171.41 1367.82 183.71 1367.94 193.7 1369.29 198.1 1369.31 198.19 1377.1 198.06 1377.22 198.06 1377.06 185.23 1376.27 174.16"/><polygon class="cls-3" points="1353.52 198.44 1353.98 183.93 1353.21 174.53 1353.21 174.47 1346.06 172.35 1345.91 172.31 1344.68 177.99 1345.46 189.06 1346.23 198.55 1353.4 198.44 1353.52 198.44"/><polygon class="cls-3" points="1353.75 216.06 1353.75 216 1346.6 213.87 1346.46 213.82 1345.22 219.51 1346.01 230.58 1346.78 240.07 1353.95 239.96 1354.07 239.96 1354.52 225.46 1353.75 216.06"/><polygon class="cls-3" points="1350.34 154.79 1352.25 150.22 1352.25 150.2 1352.13 141.34 1353.29 131.91 1353.3 131.9 1351.95 127.47 1351.93 127.4 1342.86 126.98 1342.72 126.98 1344.19 140.89 1344.34 151.97 1344.34 152.02 1350.2 154.73 1350.34 154.79"/><polygon class="cls-3" points="1375.33 153.24 1376.57 148.7 1376.44 138.72 1374.36 126.57 1374.35 126.48 1368.46 126.57 1368.36 126.57 1367.74 129.44 1367.24 140.53 1367.41 153.36 1375.23 153.24 1375.33 153.24"/><polygon class="cls-3" points="1398.4 152.87 1398.93 143.36 1399.42 132.26 1398.03 126.61 1390.87 128.99 1390.8 129.01 1390.28 138.5 1391.11 152.99 1398.29 152.87 1398.4 152.87"/></g></g></g></svg>